<svg width="250" height="530" viewBox="0 0 250 530" fill="none" xmlns="http://www.w3.org/2000/svg">
<path d="M125 529.042C194.036 529.042 250 526.58 250 523.542C250 520.504 194.036 518.042 125 518.042C55.9644 518.042 0 520.504 0 523.542C0 526.58 55.9644 529.042 125 529.042Z" fill="#495057"/>
<path d="M179.78 460.042L148.057 459.011L146.553 505.172L178.277 506.203L179.78 460.042Z" fill="white" stroke="black" stroke-width="0.35" stroke-miterlimit="10"/>
<path d="M167.843 484.058L183.621 484.607L196.463 503.301L218.295 506.6L223.432 516.496L220.68 523.644L144.543 521.078L141.058 515.947L146.378 487.356L155.184 497.436L167.843 484.058Z" fill="white" stroke="#495057" stroke-width="4" stroke-miterlimit="10"/>
<path d="M66.6015 211.902C61.4375 213.185 52.5849 212.269 49.0808 208.42C42.4413 201.456 35.9863 194.492 29.5313 187.527C28.2403 186.061 26.7649 184.412 26.2116 182.579C25.6583 180.563 26.2116 178.547 26.5805 176.531C29.1625 164.802 31.9289 153.073 34.5109 141.343C36.3552 133.463 38.1995 125.216 42.2569 118.251C46.3143 110.921 52.5849 104.873 55.5358 96.992C56.8268 93.5099 57.9333 88.9282 61.6219 88.0118C61.6219 88.0118 64.9416 83.4301 68.8146 81.5974C79.6959 76.0993 100.352 68.9518 103.856 69.5016C108.467 70.2347 160.476 68.0354 170.066 82.1472C175.968 90.5776 185.558 100.474 190.722 108.171C195.701 115.686 202.525 118.801 205.661 127.598C208.058 134.562 210.456 141.343 212.853 148.308C215.251 155.272 217.833 162.786 216.542 170.3C215.62 176.348 211.931 181.663 207.505 185.145C202.894 188.444 197.546 189.91 192.197 190.093" fill="white"/>
<path d="M224.533 521.811C224.9 512.83 221.965 506.966 217.011 505.683C211.141 504.033 204.719 503.667 199.766 505.5C195.73 506.966 193.528 511.364 190.042 513.747" fill="white"/>
<path d="M190.226 513.93C190.043 513.747 190.593 513.197 191.327 512.281C192.061 511.364 193.161 509.898 194.629 508.249C195.363 507.332 196.28 506.416 197.564 505.683C198.115 505.316 198.849 504.95 199.583 504.583C200.316 504.217 201.05 504.034 201.784 503.85C204.903 503.117 208.389 502.934 211.875 503.3C213.709 503.484 215.36 503.85 217.012 504.4C218.663 504.767 220.497 505.683 221.598 506.966C223.983 509.348 224.717 512.281 225.084 514.663C225.818 519.245 224.9 521.994 224.717 521.994C224.35 521.994 224.35 519.245 223.249 515.03C222.699 513.014 221.782 510.631 219.763 508.799C218.846 507.882 217.745 507.332 216.278 506.966C214.81 506.599 213.159 506.233 211.508 506.05C208.205 505.683 205.086 505.683 202.335 506.233C201.601 506.416 201.05 506.599 200.316 506.783C199.766 506.966 199.216 507.149 198.665 507.516C197.564 508.065 196.831 508.799 195.913 509.532C194.262 510.998 192.978 512.281 191.877 513.014C190.96 513.747 190.409 514.113 190.226 513.93Z" fill="#495057"/>
<path d="M197.014 504.583C190.593 499.452 189.492 489.372 182.52 484.607C177.2 480.942 169.494 482.041 165.275 486.806C163.44 488.822 162.339 491.388 160.505 493.404C158.487 495.237 155.184 496.336 153.166 494.504C150.231 491.938 152.065 485.523 148.396 484.057C145.644 482.958 143.259 486.256 142.158 489.006C139.04 498.352 139.773 508.799 144.543 517.412" fill="white"/>
<path d="M144.544 517.412C144.544 517.412 144.36 517.046 143.993 516.496C143.626 515.946 143.076 514.847 142.525 513.564C141.425 510.998 140.14 506.966 139.957 502.018C139.774 499.452 139.957 496.703 140.507 493.771C140.691 492.304 141.058 490.838 141.608 489.372C141.975 487.906 142.892 486.256 143.993 484.974C144.544 484.241 145.277 483.691 146.378 483.324C147.295 482.958 148.396 483.141 149.314 483.691C150.231 484.24 150.781 485.157 151.148 486.073C151.515 486.99 151.699 487.906 151.882 488.822C152.249 490.655 152.432 492.488 153.533 493.587C154.451 494.87 156.285 495.053 157.936 494.32C159.587 493.771 160.872 492.488 161.789 491.021C162.89 489.555 163.807 487.906 164.908 486.44C167.476 483.507 170.962 482.041 174.448 481.858C177.934 481.675 181.236 482.591 183.621 484.424C186.006 486.256 187.657 488.639 188.758 490.838C190.042 493.037 190.96 495.053 191.877 496.886C192.794 498.719 193.712 500.002 194.445 501.285C196.097 503.484 197.381 504.4 197.197 504.583C197.197 504.583 196.83 504.4 196.28 503.85C195.73 503.301 194.996 502.567 194.078 501.468C193.161 500.368 192.244 498.902 191.326 497.253C190.409 495.603 189.308 493.587 188.024 491.388C186.74 489.372 185.272 486.99 182.887 485.34C180.686 483.691 177.567 482.774 174.448 482.958C171.329 483.141 168.027 484.607 165.825 487.173C164.724 488.456 163.807 490.105 162.706 491.571C161.606 493.037 160.138 494.687 158.12 495.42C157.202 495.786 156.102 495.97 155.001 495.786C153.9 495.603 152.799 495.053 152.249 494.32C150.965 492.671 150.781 490.655 150.414 488.822C150.047 487.173 149.68 485.34 148.58 484.79C148.029 484.424 147.295 484.424 146.562 484.607C145.828 484.79 145.277 485.34 144.727 485.89C143.626 486.99 142.892 488.456 142.525 489.739C141.975 491.205 141.608 492.671 141.425 494.137C140.874 496.886 140.691 499.635 140.874 502.201C141.058 507.149 142.159 510.998 143.076 513.564C143.993 516.129 144.544 517.412 144.544 517.412Z" fill="#343A40"/>
<path d="M97.0387 457.348L73.0171 456.567L71.5133 502.728L95.5349 503.509L97.0387 457.348Z" fill="white" stroke="#495057" stroke-width="0.35" stroke-miterlimit="10"/>
<path d="M65.8382 491.205C66.572 499.818 60.8847 505.317 55.9312 513.014C55.7477 518.695 61.6185 521.261 66.0216 522.177C71.709 523.46 77.3963 524.193 83.0837 524.377C86.7529 524.56 90.6056 524.193 93.7245 521.994C98.1276 518.878 100.329 512.464 100.513 506.233C100.696 500.002 99.2284 494.137 97.7607 488.272" fill="white"/>
<path d="M97.9443 488.272C98.1277 488.272 98.6781 489.555 99.412 492.121C100.146 494.687 101.247 498.352 101.614 503.117C101.98 507.882 101.614 513.93 97.9443 519.612C97.0269 521.078 95.7427 522.361 94.275 523.277C92.8073 524.377 90.9727 524.926 89.1381 525.293C85.4688 526.026 81.983 525.659 78.3138 525.476C74.6445 525.11 71.1587 524.56 67.8564 523.827C64.5541 523.094 61.0683 522.177 58.3164 519.978C57.0321 518.879 55.7479 517.412 55.1975 515.763C54.8306 514.847 54.8306 514.113 54.8306 513.197C54.8306 512.831 54.8306 512.464 54.8306 512.281L55.381 511.548L55.9313 510.631C57.5825 508.432 59.0502 506.416 60.5179 504.4C63.2698 500.735 64.7375 497.253 65.2879 494.87C65.8383 492.304 65.8383 490.838 66.0218 490.838C66.2052 490.838 66.5722 492.304 66.3887 495.053C66.2052 496.336 66.0218 497.986 65.2879 499.818C64.5541 501.651 63.6368 503.484 62.3525 505.5C61.0683 507.516 59.6006 509.715 58.1329 511.914L57.5825 512.831C57.399 513.014 57.5825 513.014 57.5825 513.014C57.5825 513.564 57.766 514.113 57.9494 514.663C58.3164 515.763 59.2337 516.679 60.3344 517.596C62.536 519.245 65.4714 520.161 68.7737 520.711C72.076 521.444 75.3784 521.811 78.8642 522.177C82.3499 522.361 85.8357 522.727 88.9546 522.177C92.0735 521.628 94.4585 519.978 96.1096 517.779C97.7608 515.396 98.6781 512.831 99.2285 510.265C99.7789 507.699 99.9623 505.133 99.9623 502.934C99.7789 498.352 99.045 494.687 98.6781 492.121C97.7608 489.739 97.5773 488.272 97.9443 488.272Z" fill="#495057"/>
<path d="M82.8999 523.827C86.5692 522.361 90.4219 523.827 94.2746 524.56C98.1273 525.293 102.714 524.376 104.548 520.161C107.667 513.014 99.595 505.133 100.879 497.069" fill="white"/>
<path d="M100.879 497.069C101.43 497.069 101.063 499.818 102.714 503.667C103.448 505.683 104.548 507.882 105.649 510.631C106.2 511.914 106.567 513.564 106.75 515.213C106.933 516.862 106.75 518.878 106.016 520.711C105.282 522.544 103.815 524.01 102.163 524.926C100.512 525.843 98.8611 526.026 97.21 526.209C95.5588 526.209 94.0911 526.026 92.8069 525.659C91.5226 525.293 90.4219 525.11 89.5046 524.743C87.4865 524.193 85.8353 524.01 84.7345 524.01C83.6338 524.01 82.8999 524.193 82.8999 524.01C82.8999 523.827 83.2668 523.277 84.5511 522.91C85.8353 522.544 87.6699 522.361 89.8715 522.727C92.073 522.91 94.6415 523.643 97.0265 523.46C99.595 523.277 102.163 522.177 103.081 519.611C104.182 517.046 103.631 514.297 102.714 511.731C101.98 509.165 100.879 506.599 100.512 504.583C99.9619 502.384 99.7785 500.551 100.145 499.269C100.329 497.619 100.696 497.069 100.879 497.069Z" fill="#495057"/>
<path d="M56.2983 513.014C62.5361 506.783 71.1588 503.117 79.965 502.934C88.7712 502.751 97.5774 506.05 103.999 511.914" fill="white"/>
<path d="M104.182 511.914C103.999 512.098 101.797 510.265 97.5773 508.066C93.5412 505.866 87.12 503.85 80.1484 504.034C72.9934 504.217 66.9391 506.599 62.9029 508.799C58.8667 511.181 56.6652 513.197 56.4817 512.831C56.2983 512.647 58.1329 510.265 62.1691 507.516C66.2052 504.767 72.6264 502.018 80.1484 501.834C87.6704 501.651 94.275 504.217 98.3112 506.783C102.531 509.349 104.365 511.731 104.182 511.914Z" fill="#495057"/>
<path d="M114.639 174.332L88.5875 183.129L85.2852 233.711L85.4686 277.329L131.701 291.075L157.569 286.493L174.998 249.839L154.451 174.698C154.451 174.515 154.451 174.332 154.451 174.148" fill="white"/>
<path d="M66.5723 250.938C66.5723 250.938 63.0865 434.758 63.2699 476.91C63.2699 478.926 64.9211 480.575 67.1226 480.575L105.099 481.858C107.301 481.858 108.952 480.392 109.136 478.376L115.74 380.693L128.583 310.684L139.223 388.391L141.425 479.476C141.425 481.492 143.076 483.141 145.278 483.141L186.373 484.424C188.575 484.424 190.409 482.775 190.409 480.575L184.355 253.138" fill="white"/>
<path d="M183.988 253.321C183.988 253.321 184.172 253.871 184.172 255.154C184.172 256.437 184.355 258.269 184.539 260.652C184.722 265.417 185.089 272.564 185.456 281.728C186.006 300.055 186.924 326.629 188.024 359.984C188.942 393.156 190.226 433.109 191.51 477.826V479.842C191.51 480.209 191.51 480.392 191.51 480.942C191.51 481.492 191.327 481.858 191.327 482.408C190.776 484.241 189.125 485.707 187.107 485.89C186.006 486.074 185.456 485.89 184.722 485.89H182.521C181.053 485.89 179.585 485.89 178.301 485.707C172.614 485.524 166.743 485.34 160.872 485.157C157.937 485.157 155.001 484.974 152.066 484.791C150.598 484.791 149.13 484.607 147.663 484.607H145.461C144.544 484.607 143.443 484.424 142.709 483.874C141.792 483.324 141.058 482.591 140.691 481.675C140.141 480.759 140.141 479.476 140.141 478.926C140.141 477.46 140.141 475.81 139.957 474.344C139.957 471.229 139.774 468.296 139.774 465.181C139.223 440.623 138.49 415.148 137.939 388.757C135.004 366.765 131.885 343.856 128.583 320.581C124.73 341.29 121.061 361.45 117.391 381.06C115.557 407.451 113.906 433.109 112.071 457.667C111.704 463.898 111.154 469.946 110.787 475.994L110.603 478.193C110.603 478.559 110.603 479.109 110.42 479.659C110.236 480.209 110.053 480.575 109.686 481.125C109.136 482.042 108.218 482.591 107.301 482.958C106.751 483.141 106.384 483.324 105.833 483.324C105.65 483.324 105.283 483.324 105.099 483.324H104.549C101.614 483.141 98.4948 483.141 95.5594 482.958C89.6886 482.775 83.8177 482.591 77.9469 482.408C75.0115 482.225 72.2596 482.225 69.3242 482.042H67.1227C66.3888 482.042 65.288 481.858 64.5542 481.309C63.8203 480.759 63.0865 480.209 62.5361 479.293C62.3526 478.926 62.1692 478.376 61.9857 478.01C61.8022 477.643 61.8022 476.91 61.8022 476.727C61.8022 454.185 62.1692 432.925 62.5361 413.132C62.903 393.339 63.2699 375.012 63.4534 358.151C64.1873 324.796 64.7376 297.856 65.288 279.529C65.655 270.365 65.8384 263.218 66.0219 258.269C66.2053 255.887 66.2053 254.054 66.2053 252.771C66.2053 251.488 66.3888 250.938 66.3888 250.938C66.3888 250.938 66.3888 251.488 66.5723 252.771C66.5723 254.054 66.5723 255.887 66.5723 258.269C66.5723 263.034 66.5723 270.182 66.3888 279.529C66.2053 298.039 65.8384 324.796 65.4715 358.151C65.288 374.829 65.1046 393.156 64.9211 413.132C64.7376 432.925 64.3707 454.185 64.5542 476.727C64.5542 477.826 64.9211 478.559 65.8384 479.109C66.2053 479.293 66.5723 479.476 67.3061 479.476H69.5077C72.4431 479.476 75.195 479.659 78.1304 479.659C83.8178 479.842 89.6886 480.026 95.7428 480.209C98.6782 480.209 101.614 480.392 104.732 480.575H105.283C105.466 480.575 105.466 480.575 105.65 480.575C105.833 480.575 106.2 480.575 106.384 480.392C106.751 480.209 107.301 479.842 107.484 479.476C107.668 479.293 107.668 479.109 107.851 478.926C107.851 478.743 107.851 478.559 108.035 478.193L108.218 475.994C108.585 469.946 108.952 463.898 109.503 457.667C111.154 432.925 112.805 407.268 114.639 380.877C119.409 355.219 124.363 328.645 129.316 301.521C129.5 303.354 129.867 305.003 130.05 306.836C133.903 334.876 137.572 362.183 141.242 388.757C141.792 415.148 142.342 440.806 142.893 465.364C142.893 468.48 143.076 471.412 143.076 474.528C143.076 475.994 143.076 477.643 143.26 479.109C143.26 480.026 143.26 480.392 143.443 480.759C143.627 481.125 143.993 481.492 144.36 481.858C144.727 482.042 145.278 482.225 145.828 482.225H148.03C149.497 482.225 150.965 482.408 152.433 482.408C155.368 482.591 158.304 482.591 161.239 482.775C167.11 482.958 172.981 483.141 178.668 483.324C180.136 483.324 181.603 483.508 182.888 483.508H185.089C185.823 483.508 186.557 483.508 186.924 483.508C187.841 483.324 188.758 482.775 188.942 481.858C188.942 481.675 189.125 481.492 189.125 481.125C189.125 480.942 189.125 480.392 189.125 480.209V478.193C188.024 433.475 187.107 393.706 186.19 360.351C185.456 327.179 184.906 300.421 184.539 282.094C184.355 272.931 184.355 265.783 184.172 261.018C184.172 258.636 184.172 256.803 184.172 255.52C183.805 254.054 183.988 253.321 183.988 253.321Z" fill="#495057"/>
<path d="M158 495.457C165.705 489.225 169.008 491.425 167.723 485.377C167.357 483.544 167.357 477.679 168.09 476.03C169.191 473.648 180.382 474.564 182.951 474.014C184.969 473.464 185.703 489.225 190.289 494.357" fill="white"/>
<path d="M189.302 493.771C189.118 494.138 187.1 492.305 185.633 488.456C184.899 486.624 184.165 484.241 183.431 481.492C183.064 480.209 182.697 478.743 182.33 477.277C182.147 476.544 181.963 475.811 181.78 475.261C181.596 474.894 181.596 474.894 181.596 474.894H181.23H180.679H179.578C178.845 474.894 178.111 474.894 177.377 474.894C175.909 474.894 174.441 474.894 172.974 475.078C171.873 475.078 170.956 475.261 170.038 475.444C169.121 475.627 168.204 475.994 168.387 475.994C168.387 475.994 168.204 476.544 168.204 476.91C168.204 477.277 168.02 477.643 168.02 478.01C168.02 478.743 167.837 479.659 167.837 480.392C167.837 482.042 167.837 483.508 168.02 484.791C168.204 485.524 168.204 486.44 168.204 487.357C168.204 488.273 167.653 489.373 166.919 489.922C165.635 491.022 164.351 491.205 163.434 491.755C159.398 493.588 157.379 495.054 157.013 494.871C156.829 494.687 158.664 492.488 162.516 490.106C163.434 489.556 164.718 489.006 165.268 488.273C165.635 487.906 165.635 487.723 165.635 487.173C165.635 486.623 165.635 486.074 165.452 485.341C165.085 483.691 164.901 482.042 164.901 480.392C164.901 479.476 164.901 478.743 164.901 477.827C164.901 477.46 164.901 476.91 165.085 476.36C165.268 475.811 165.268 475.444 165.635 474.711C166.002 474.344 166.186 473.795 166.553 473.611C166.919 473.428 167.286 473.245 167.47 473.062C168.02 472.695 168.754 472.695 169.304 472.512C170.405 472.328 171.506 472.145 172.607 472.145C174.258 471.962 175.726 471.962 177.193 471.962C177.927 471.962 178.661 471.962 179.395 471.962H180.496H181.046H181.23H181.413H181.596C181.963 471.962 182.33 471.962 182.697 471.962C183.064 472.145 183.248 472.328 183.615 472.695C184.165 473.245 184.348 474.161 184.532 474.344C184.715 475.261 184.899 475.994 185.082 476.727C185.449 478.193 185.633 479.659 185.816 480.942C186.367 483.508 186.733 485.89 187.284 487.723C188.201 491.755 189.485 493.588 189.302 493.771Z" fill="#495057"/>
<path d="M67.1226 234.994C104.916 251.488 149.314 252.038 187.474 236.277Z" fill="white"/>
<path d="M67.1226 234.994C104.916 251.488 149.314 252.038 187.474 236.277" stroke="#495057" stroke-width="2" stroke-miterlimit="10"/>
<path d="M145.278 201.272C151.332 217.4 154.634 234.444 155.001 251.672C155.185 257.903 160.322 263.034 166.559 262.851C172.063 262.668 177.384 262.118 182.704 261.018C186.373 260.285 190.409 258.819 191.877 255.52C192.978 253.138 192.611 250.389 192.244 247.823C189.676 231.879 187.107 215.934 184.722 200.173" fill="white"/>
<path d="M184.722 199.989C184.905 199.989 185.456 202.005 186.19 205.854C186.924 209.703 188.024 215.201 189.309 221.982C190.593 228.763 191.877 236.826 193.528 245.99C193.895 248.189 194.445 250.572 194.079 253.321C193.895 254.604 193.345 256.07 192.611 257.353C191.694 258.636 190.593 259.552 189.309 260.102C186.924 261.568 184.172 262.118 181.603 262.484C179.035 263.034 176.466 263.401 173.714 263.584C170.962 263.767 168.394 264.134 165.642 263.95C162.706 263.767 159.955 262.668 157.753 260.652C155.551 258.819 154.267 256.253 153.717 253.687C153.35 252.404 153.35 250.938 153.35 249.839C153.35 248.739 153.35 247.456 153.166 246.356C152.799 237.376 151.515 229.129 150.231 222.531C147.479 208.969 144.544 201.089 144.911 200.906C145.094 200.906 146.011 202.738 147.479 206.404C148.947 210.069 150.598 215.384 152.249 222.165C153.9 228.946 155.185 237.193 155.918 246.356C155.918 247.456 156.102 248.739 156.102 249.839C156.102 251.122 156.102 252.038 156.469 253.137C157.019 255.153 158.12 257.169 159.771 258.452C161.422 259.918 163.44 260.835 165.825 260.835C168.21 260.835 170.779 260.652 173.347 260.468C175.916 260.285 178.484 259.735 180.869 259.369C183.438 258.819 185.639 258.269 187.657 257.353C189.675 256.253 190.776 254.787 190.96 252.771C191.143 250.755 190.776 248.556 190.409 246.173C189.125 237.193 187.841 228.946 186.924 222.165C186.006 215.384 185.272 209.703 184.905 205.854C184.722 202.189 184.539 200.173 184.722 199.989Z" fill="#495057"/>
<path d="M65.8381 137.861C62.7192 170.483 59.7838 203.105 56.665 235.91C56.298 240.309 55.9311 244.89 57.5823 249.106C60.7011 256.62 69.5073 259.735 77.3962 262.118C83.8174 263.95 90.9725 265.783 96.6598 262.484C102.164 259.369 104.365 252.588 106.016 246.54C109.869 232.611 114.639 188.627 102.898 125.215" fill="white"/>
<path d="M103.631 127.781C103.264 125.765 103.081 124.849 102.897 124.849C102.897 124.849 102.897 125.948 102.531 127.598C102.714 129.614 103.081 132.546 103.631 136.211C104.549 143.542 106.2 154.355 107.117 167.734C108.218 181.112 108.952 197.24 108.034 214.834C107.668 223.631 106.934 232.978 104.916 242.324C104.365 244.707 103.815 247.09 103.081 249.289C102.347 251.488 101.613 253.687 100.329 255.703C99.2282 257.719 97.5771 259.552 95.7425 260.651C93.7244 261.751 91.5228 262.301 89.1378 262.301C84.3678 262.301 79.5978 260.835 74.8279 259.369L74.8277 259.369C70.2412 257.902 65.6546 256.07 62.3523 253.137C60.7011 251.488 59.4169 249.839 58.683 247.823C57.9492 245.807 57.5822 243.607 57.5822 241.408C57.5822 239.209 57.7657 236.826 57.9492 234.627C58.1326 232.245 58.3161 230.045 58.4996 227.846C58.8782 223.26 59.2568 217.329 59.6291 213L57.1635 212.032C56.7135 216.54 56.244 222.67 55.7476 227.48C55.3807 229.679 55.1972 232.061 55.0138 234.261C54.6468 236.46 54.4634 238.842 54.4634 241.225C54.4634 243.791 54.8303 246.356 55.7476 248.739C56.8484 251.305 58.3161 253.321 60.3342 255.153C64.1869 258.635 69.1404 260.468 73.9104 262.118C78.8639 263.584 83.8174 265.233 89.3213 265.233C92.0732 265.233 95.0086 264.5 97.3936 263.034C99.7786 261.568 101.797 259.552 103.081 257.169C104.549 254.787 105.466 252.404 106.2 250.022C107.117 247.639 107.668 245.257 108.218 242.874C110.236 233.344 110.97 223.998 111.337 215.017C112.071 197.24 111.153 181.112 109.869 167.734C108.585 154.355 106.75 143.542 105.466 136.211C104.732 132.546 103.998 129.797 103.631 127.781Z" fill="#495057"/>
<path d="M65.8381 210.436C62.9027 210.986 59.7839 210.986 56.8485 210.436C53.1792 209.703 50.9777 208.237 48.4092 205.671C42.1715 199.073 35.9338 192.659 29.8795 185.878C28.4118 184.228 27.311 182.579 27.311 180.38C27.311 178.181 28.2283 175.798 28.5953 173.599C29.5126 169.2 30.6133 164.802 31.5307 160.403C33.5487 151.79 35.1999 142.993 37.4015 134.379C39.4195 126.132 42.7219 118.984 47.6754 112.203C49.8769 109.088 52.2619 106.156 54.0965 102.673C55.7477 99.5579 56.665 96.0758 58.1327 92.9602C58.8666 91.3107 59.7839 90.5777 61.435 89.6613C61.9854 89.2948 62.3524 88.9282 62.9027 88.3784C64.9208 85.9959 67.1224 83.9799 69.8743 82.5138C75.3782 79.7647 81.249 77.5655 87.1198 75.3663C91.7064 73.7168 96.6598 71.7009 101.613 71.1511C103.081 70.9678 105.099 71.1511 107.117 71.3343C115.556 71.5176 123.996 71.7009 132.435 72.2507C141.792 72.9838 151.882 74.0834 160.505 77.932C164.358 79.5815 166.743 81.964 169.128 85.2628C173.531 91.3107 178.668 96.8088 183.254 102.673C185.456 105.239 187.29 108.172 189.308 110.921C191.327 113.67 193.712 115.869 196.097 118.251C198.482 120.634 200.5 123.2 201.967 126.315C203.802 130.347 205.086 134.929 206.554 139.144C209.489 147.575 213.709 156.371 213.892 165.352C214.076 173.416 209.856 181.296 202.701 185.145C199.032 187.161 194.996 188.077 190.96 188.077C188.941 188.077 188.941 191.376 190.96 191.376C199.032 191.193 206.737 188.077 211.691 181.663C217.011 174.882 217.929 166.635 216.277 158.571C214.259 149.041 210.223 139.694 206.921 130.53C205.637 126.682 204.352 123.2 201.784 119.901C199.766 117.152 197.197 114.769 194.812 112.203C192.244 109.454 190.226 106.339 188.024 103.407C185.639 100.291 183.071 97.3586 180.686 94.2431C177.934 91.1275 175.365 87.8286 172.797 84.5298C171.329 82.5138 170.045 80.3146 168.027 78.4819C161.055 72.434 150.414 70.9678 141.608 69.6849C131.518 68.402 121.427 68.0355 111.153 67.8522C108.585 67.8522 105.833 67.8522 103.264 67.6689C103.081 67.6689 103.631 67.6689 102.898 67.6689C102.714 67.6689 102.347 67.6689 102.164 67.6689C101.246 67.6689 100.329 67.8522 99.4118 68.0355C97.0268 68.5853 94.6418 69.3184 92.2567 70.0515C85.8356 72.0674 79.4144 74.4499 73.3601 77.199C70.4247 78.4819 67.3058 79.7647 64.7374 81.5974C63.4531 82.5138 62.3524 83.6134 61.435 84.713C60.8847 85.2628 60.3343 86.3625 59.6004 86.9123C60.7012 85.9959 58.8666 86.9123 58.6831 87.0955C58.1327 87.4621 57.5823 88.0119 57.0319 88.3784C55.9312 89.478 55.3808 90.9442 54.6469 92.4104C53.1792 96.0758 51.895 99.7411 49.6934 103.223C47.4919 106.705 44.74 110.004 42.5384 113.486C40.1534 116.969 38.3188 120.817 36.8511 124.849C33.7322 133.646 32.081 142.993 30.063 151.973C28.9622 156.738 27.8614 161.686 26.7606 166.451C25.8433 170.85 24.1922 175.432 24.0087 179.83C23.8252 183.862 26.5772 186.794 29.3291 189.543C32.8149 193.209 36.1172 196.874 39.603 200.723C42.5384 203.838 45.2903 207.504 48.7761 210.07C51.3446 211.902 54.4635 212.819 57.5823 213.185C60.7012 213.552 63.6366 213.552 66.7555 212.819C68.7735 213.002 67.8562 209.886 65.8381 210.436Z" fill="#495057"/>
<path d="M106 14C100.863 15.8327 97.2102 20.9349 96.4763 26.433C95.7425 31.7478 97.0002 38 99.5 42.5" fill="#495057"/>
<path d="M111.887 11.2217C112.988 7.73958 115.19 4.44072 118.308 2.24149C121.427 0.225519 125.463 -0.69083 128.949 0.592058C132.435 1.87495 135.003 4.80726 137.205 7.73957C139.407 10.6719 141.241 13.9707 144.177 16.3533" fill="#495057"/>
<path d="M146.928 19.1025C150.047 21.8516 152.249 25.7003 153.166 29.7322C154.083 33.7641 153.533 38.1626 151.882 42.0113" fill="#495057"/>
<path d="M182.337 194.125C181.603 197.24 181.97 200.539 182.703 203.655C183.988 208.42 186.189 213.368 190.225 215.201C193.161 216.484 196.647 215.751 199.582 214.284C202.517 212.635 204.902 210.069 207.471 207.687C209.856 205.304 212.241 202.922 213.709 199.806C214.993 197.424 215.543 194.675 216.277 191.925C217.194 188.077 218.112 184.045 217.011 180.196C216.277 177.814 214.809 175.981 213.525 173.782C212.241 171.766 211.324 169.2 211.874 166.634" fill="white"/>
<path d="M211.874 166.634C212.058 166.634 211.874 167.917 212.608 169.933C212.975 170.849 213.525 172.132 214.443 173.415C215.36 174.698 216.461 176.164 217.561 177.997C218.662 179.83 219.029 182.395 219.029 184.961C219.029 187.527 218.295 190.093 217.745 192.659C217.195 195.224 216.461 198.157 214.993 200.906C213.525 203.655 211.324 206.037 209.122 208.236C206.921 210.436 204.903 212.635 202.334 214.468C199.766 216.3 196.83 217.4 193.711 217.4C190.592 217.4 187.84 215.567 186.189 213.551C184.538 211.535 183.621 209.336 182.887 207.32C181.603 203.288 181.236 199.989 181.419 197.607C181.603 195.224 182.153 194.125 182.337 194.125C182.52 194.125 182.337 195.408 182.52 197.607C182.704 199.806 183.254 202.922 184.722 206.587C185.455 208.42 186.373 210.252 187.84 211.902C189.308 213.551 191.143 214.651 193.528 214.651C195.729 214.651 198.298 213.735 200.316 212.085C202.517 210.436 204.536 208.42 206.737 206.221C208.939 204.021 210.773 202.005 212.058 199.623C213.342 197.24 214.076 194.675 214.626 192.109C215.36 189.543 215.91 187.16 216.094 184.961C216.277 182.762 216.094 180.746 215.176 179.097C214.443 177.447 213.342 175.798 212.608 174.332C211.874 172.865 211.324 171.399 211.14 170.3C210.957 167.917 211.691 166.634 211.874 166.634Z" fill="#495057"/>
<path d="M101.246 49.8915C101.246 44.0268 100.513 30.8314 101.98 25.1501C103.081 20.9349 105.283 13.7873 108.768 11.2216C111.887 8.83906 116.657 6.09001 120.693 5.72347C124.913 5.35693 129.316 4.99039 133.352 6.09001C139.774 7.92271 144.911 13.0543 147.662 19.1022C150.414 25.1501 150.781 31.931 150.047 38.5288C149.314 45.1265 146.195 51.5409 144.36 57.7721" fill="white"/>
<path d="M144.176 58.1387C144.176 58.1387 144.177 57.7722 144.36 56.8558C144.543 56.1227 144.91 54.8398 145.461 53.3737C146.378 50.2581 148.213 46.0429 149.13 40.3615C149.864 34.8634 150.047 27.8992 147.479 20.9349C146.195 17.4528 143.993 14.154 141.058 11.4049C138.122 8.65587 134.27 6.82318 130.05 6.45664C127.848 6.27337 125.83 6.27337 123.629 6.45664C122.528 6.45664 121.611 6.63991 120.51 6.63991C119.593 6.82318 118.492 7.00645 117.574 7.18972C115.74 7.73953 113.905 8.65587 112.254 9.75549C110.603 10.8551 108.952 11.7715 107.851 13.0543C105.649 15.8034 104.365 19.2855 103.448 22.4011C102.897 24.0505 102.531 25.5167 102.347 26.9828C102.164 28.449 101.98 29.9152 101.98 31.3813C101.613 37.0627 101.797 41.6444 101.797 44.9433C101.797 46.5927 101.797 47.8756 101.797 48.6087C101.797 49.525 101.797 49.8916 101.613 49.8916C101.613 49.8916 101.613 49.525 101.43 48.6087C101.43 47.6923 101.246 46.5927 101.246 44.9433C101.063 41.8277 100.879 37.0627 101.063 31.3813C101.063 29.9152 101.246 28.449 101.43 26.7996C101.613 25.1501 102.164 23.684 102.531 22.0346C103.081 20.3851 103.631 18.7357 104.365 17.0863C105.099 15.4369 106.016 13.7874 107.117 12.138C108.401 10.4886 110.236 9.57222 111.887 8.4726C113.538 7.37299 115.556 6.45664 117.574 5.90683C118.675 5.54029 119.593 5.35702 120.693 5.17375C121.794 4.99048 122.711 4.99048 123.812 4.99048C126.014 4.80721 128.215 4.80721 130.417 4.99048C134.82 5.35702 139.04 7.55626 142.158 10.3053C145.277 13.2376 147.479 16.7197 148.947 20.2019C151.698 27.5327 151.332 34.6802 150.414 40.3615C149.313 46.0429 147.295 50.2581 146.378 53.3737C145.828 54.8398 145.461 55.9395 145.094 56.8558C144.36 57.7722 144.176 58.1387 144.176 58.1387Z" fill="#495057"/>
<path d="M114.272 46.4098C117.391 42.5612 122.528 40.1787 127.481 40.7285C132.435 41.095 137.205 44.2106 139.59 48.6091" fill="white"/>
<path d="M139.59 48.4258C139.223 48.6091 138.306 47.1429 136.471 45.4935C134.453 43.8441 131.334 42.0114 127.481 41.6448C123.629 41.2783 120.143 42.5612 117.941 44.0273C115.74 45.3102 114.639 46.5931 114.272 46.4098C114.089 46.2266 114.822 44.5771 117.024 42.7445C119.226 40.9118 123.078 39.2623 127.481 39.4456C131.885 39.8121 135.554 42.1946 137.388 44.3939C139.406 46.5931 139.773 48.4258 139.59 48.4258Z" fill="black"/>
<path d="M119.776 29.3654C122.161 30.8316 124.362 27.8992 126.747 28.0825C129.316 28.2658 131.151 31.0148 133.536 30.2817" fill="white"/>
<path d="M133.536 30.4693C133.719 30.4693 132.802 31.2023 131.334 30.6525C130.05 30.286 128.399 29.5529 126.747 29.5529C125.096 29.5529 123.445 30.1027 121.977 30.286C120.51 30.4693 120 29.5002 120 29.5002C120 29.317 120.693 29.9195 121.794 29.5529C122.344 29.3696 123.078 29.0031 123.812 28.6366C124.546 28.27 125.647 27.7202 126.747 27.7202C127.848 27.7202 128.949 28.27 129.683 28.8198C130.417 29.3696 131.151 29.7362 131.701 29.9195C132.618 30.6525 133.536 30.286 133.536 30.4693Z" fill="#495057"/>
<path d="M110.236 18.0027C112.621 16.7198 115.557 16.5365 117.942 17.2696Z" fill="white"/>
<path d="M117.941 17.2695C117.758 17.6361 116.107 17.0863 114.089 17.4528C112.071 17.6361 110.42 18.3692 110.236 18.0026C110.053 17.8194 111.704 16.5365 114.089 16.3532C116.29 16.1699 118.125 17.0863 117.941 17.2695Z" fill="black"/>
<path d="M132.802 17.2698C135.004 16.1701 137.755 15.9869 140.14 17.2698Z" fill="white"/>
<path d="M140.141 17.2699C139.957 17.4531 138.489 16.9033 136.471 16.9033C134.453 16.9033 132.986 17.6364 132.802 17.2699C132.619 17.0866 134.086 15.8037 136.471 15.8037C138.856 15.8037 140.324 17.0866 140.141 17.2699Z" fill="black"/>
<path d="M147.846 42.7441C147.662 41.6445 148.396 40.5448 149.497 40.1783C150.598 39.8118 151.699 40.1783 152.616 40.7281C153.533 41.4612 154.084 42.3775 154.634 43.2939C155.918 45.8597 155.918 48.9753 154.634 51.541C153.533 53.557 151.699 54.8399 149.68 55.7562C147.662 56.6726 145.461 57.0391 143.259 57.5889" fill="white"/>
<path d="M143.259 57.7723C143.259 57.589 144.91 57.2225 147.662 56.3061C148.947 55.7563 150.598 55.2065 151.882 54.1069C153.35 53.0073 154.45 51.3578 154.817 49.3419C155.184 47.3259 154.817 45.3099 154.084 43.6605C153.35 42.0111 152.065 40.9115 150.781 40.7282C149.497 40.5449 148.58 41.278 148.213 42.0111C147.846 42.7442 148.029 43.1107 147.846 43.1107C147.846 43.1107 147.479 42.7442 147.846 41.8278C148.029 41.4613 148.213 40.9115 148.763 40.5449C149.314 40.1784 150.047 39.9951 150.781 39.9951C152.432 40.1784 154.084 41.4613 154.817 43.294C155.735 45.1267 156.285 47.3259 155.735 49.5251C155.368 51.9077 153.9 53.7403 152.249 55.0232C150.598 56.3061 148.947 56.8559 147.662 57.2225C145.094 57.7723 143.259 57.7723 143.259 57.7723Z" fill="#495057"/>
<path d="M79.4146 212.085C83.4507 210.619 87.4869 209.336 91.5231 207.87C91.89 207.687 92.2569 207.687 92.4404 207.32C92.8073 206.77 92.6239 205.854 92.0735 205.487C91.5231 205.121 90.7892 204.938 90.0554 204.938" fill="white"/>
<path d="M90.2389 204.938C90.2389 204.754 90.6058 204.388 91.7066 204.388C92.257 204.388 92.9908 204.754 93.5412 205.487C94.0916 206.22 94.2751 207.32 93.5412 208.053C93.1743 208.603 92.6239 208.786 92.0735 209.153C91.7066 209.336 91.3397 209.519 90.7893 209.703C90.0554 210.069 89.3216 210.252 88.4043 210.619C83.6343 212.268 79.5981 212.818 79.4146 212.085C79.2312 211.352 82.717 209.336 87.487 207.687C88.4043 207.32 89.1381 207.137 89.872 206.953L90.4224 206.77C90.6058 206.77 90.9728 206.587 90.7893 206.587H90.9728C91.3397 206.587 91.3397 206.037 90.9728 205.671C90.7893 205.487 90.2389 205.121 90.2389 204.938Z" fill="#495057"/>
<path d="M181.97 189.36C181.786 188.261 181.786 187.161 181.603 186.061C185.272 185.878 188.758 188.627 190.409 191.926C192.06 195.225 192.427 199.074 192.427 202.922C192.427 205.488 192.427 208.237 191.143 210.436C189.859 212.636 187.474 213.918 185.089 214.468C180.686 215.568 175.732 214.102 172.613 210.803C169.494 207.687 168.027 202.739 169.128 198.34" fill="white"/>
<path d="M168.944 198.34C169.128 198.34 169.128 199.44 169.128 201.089C169.311 202.739 169.678 205.121 171.146 207.504C172.614 209.886 175.365 212.269 178.851 213.002C180.686 213.368 182.521 213.552 184.539 213.002C186.373 212.635 188.208 211.536 189.309 210.07C190.409 208.603 190.593 206.587 190.593 204.388C190.593 202.189 190.593 200.173 190.409 198.157C190.042 194.308 188.758 191.193 186.74 189.177C185.823 188.26 184.722 187.527 183.621 187.161C183.438 187.161 183.254 186.978 183.071 186.978C182.887 186.978 182.704 186.978 182.704 186.794C182.521 186.794 182.337 186.794 182.154 186.794C182.154 186.794 182.154 186.978 182.154 187.161C182.154 187.344 182.154 187.711 182.154 187.894C182.154 188.26 182.154 188.444 182.154 188.627C182.154 189.177 181.97 189.36 181.97 189.36C181.787 189.36 181.787 189.177 181.603 188.627C181.603 188.444 181.42 188.077 181.42 187.711C181.42 187.344 181.236 186.794 181.053 186.244C181.053 186.061 181.053 185.878 181.053 185.695V185.511V185.328C181.42 185.328 181.787 185.328 181.97 185.328C182.337 185.328 182.704 185.328 183.071 185.328C183.254 185.328 183.438 185.328 183.805 185.328L184.355 185.511C185.639 185.878 187.107 186.428 188.391 187.527C189.676 188.627 190.96 190.093 191.694 191.926C192.611 193.759 193.161 195.775 193.345 197.79C193.712 199.99 193.712 202.006 193.895 204.388C193.895 206.587 193.712 209.336 192.061 211.719C190.409 214.101 187.841 215.201 185.456 215.751C183.071 216.301 180.686 216.117 178.484 215.568C174.081 214.468 170.962 211.352 169.495 208.42C168.027 205.488 167.844 202.739 168.027 200.906C168.394 199.257 168.761 198.34 168.944 198.34Z" fill="#495057"/>
<path d="M179.585 206.587C175.916 206.221 172.43 205.854 168.761 205.488C167.843 205.488 166.926 205.304 166.376 206.037C165.825 206.771 165.825 207.87 166.376 208.603C168.027 211.352 175.916 210.986 179.402 213.551" fill="white"/>
<path d="M179.401 213.368C179.218 213.735 177.75 213.185 174.998 212.818C173.714 212.635 172.063 212.452 170.228 212.085C169.311 211.902 168.394 211.719 167.293 211.169C166.743 210.986 166.192 210.619 165.642 210.069C165.091 209.52 164.724 208.787 164.541 207.87C164.358 207.137 164.541 206.037 165.091 205.304C165.458 204.938 165.825 204.571 166.192 204.388C166.559 204.205 167.109 204.205 167.476 204.021C168.944 204.021 169.678 204.205 170.595 204.205C172.43 204.388 174.081 204.755 175.365 204.938C178.117 205.488 179.768 206.037 179.768 206.404C179.768 206.771 177.934 206.954 175.182 207.137C173.714 207.137 172.246 207.137 170.412 206.954C169.494 206.954 168.394 206.771 167.843 206.954C167.476 206.954 167.66 206.954 167.66 206.954C167.66 206.954 167.66 207.137 167.66 207.32C167.476 208.053 169.494 208.786 171.146 209.336C172.797 209.886 174.448 210.253 175.732 210.802C178.117 211.536 179.585 213.002 179.401 213.368Z" fill="#495057"/>
<path d="M178.667 200.906C174.264 201.639 168.76 201.639 163.99 201.456C163.257 201.456 161.238 201.272 160.688 201.639C159.587 202.189 159.404 203.838 160.872 205.121C161.789 206.037 161.789 206.037 163.073 206.404C164.357 206.77 166.559 207.687 167.843 207.687C172.063 207.503 176.099 207.32 180.319 207.137" fill="white"/>
<path d="M180.135 206.77C180.135 207.137 177.75 207.687 174.081 208.236C173.164 208.42 172.063 208.42 170.962 208.603C170.412 208.603 169.861 208.786 169.311 208.786C168.944 208.786 168.761 208.786 168.394 208.786C168.027 208.786 167.843 208.786 167.293 208.786C165.642 208.603 164.357 208.053 163.073 207.687C162.706 207.503 162.523 207.503 162.156 207.503C161.972 207.503 161.789 207.32 161.422 207.32C161.239 207.137 160.872 206.954 160.688 206.954C160.321 206.587 160.138 206.404 159.771 206.22C159.404 205.854 159.037 205.487 158.854 204.938C158.487 204.204 158.303 203.471 158.303 202.555C158.487 201.639 159.037 200.722 159.954 200.356C160.505 199.989 161.055 199.989 161.422 199.989C161.789 199.989 162.156 199.989 162.523 199.989C163.257 199.989 163.807 199.989 164.357 200.173C165.458 200.173 166.559 200.356 167.66 200.356C169.861 200.539 171.696 200.539 173.347 200.539C176.466 200.722 178.484 200.539 178.484 200.906C178.484 201.272 176.649 202.005 173.347 202.372C171.696 202.555 169.678 202.738 167.66 202.738C166.559 202.738 165.458 202.738 164.174 202.738C163.624 202.738 163.073 202.738 162.339 202.738C161.972 202.738 161.789 202.738 161.606 202.738C161.422 202.738 161.239 202.738 161.239 202.738C161.239 202.738 161.239 202.922 161.422 203.288C161.422 203.471 161.606 203.655 161.789 203.838C161.972 204.021 162.339 204.388 162.523 204.388C162.523 204.388 163.257 204.571 163.991 204.938C165.275 205.487 166.559 205.854 167.476 206.037C167.66 206.037 167.843 206.037 168.21 206.037C168.577 206.037 168.761 206.037 169.128 206.037C169.678 206.037 170.228 206.037 170.779 206.037C171.879 206.037 172.98 206.037 173.898 206.037C177.75 206.22 180.135 206.404 180.135 206.77Z" fill="#495057"/>
<path d="M73.1041 192.292C73.1041 192.292 72.0034 131.996 72.3703 129.431C72.7372 126.682 74.2049 124.849 78.9749 124.849C83.745 125.032 179.512 124.666 182.081 124.849C188.502 125.032 188.502 127.781 188.319 133.096C188.135 138.594 184.282 194.125 184.282 194.125C184.282 194.125 183.732 200.539 173.458 200.173C152.543 199.44 78.0576 199.806 78.0576 199.806C78.0576 199.806 73.2876 201.089 73.1041 192.292Z" fill="white" stroke="#495057" stroke-width="2" stroke-miterlimit="10"/>
<path d="M114.304 21.1022C118.439 20.7086 121.613 18.5108 121.392 16.1933C121.171 13.8757 117.639 12.3161 113.503 12.7097C109.368 13.1033 106.194 15.3011 106.415 17.6186C106.636 19.9361 110.168 21.4958 114.304 21.1022Z" fill="white" stroke="#495057" stroke-width="2" stroke-miterlimit="10"/>
<path d="M144.682 18.5637C144.935 16.2494 141.791 14.009 137.662 13.5596C133.532 13.1101 129.979 14.6219 129.727 16.9361C129.475 19.2504 132.618 21.4908 136.748 21.9402C140.877 22.3897 144.43 20.8779 144.682 18.5637Z" fill="white" stroke="#495057" stroke-width="2" stroke-miterlimit="10"/>
<path d="M119.593 21.4849C120.693 20.7518 121.244 19.4689 121.978 18.1861C122.711 17.0864 123.629 15.437 123.629 15.437L128.215 15.6203C128.215 15.6203 130.233 20.0188 130.784 21.6682" fill="white"/>
<path d="M130.784 21.668C130.417 21.668 130.05 20.9349 129.133 19.4688C128.766 18.7357 128.215 17.8194 127.665 16.903C127.665 16.7197 127.481 16.7197 127.481 16.7197H127.298C126.748 16.7197 126.014 16.7197 125.463 16.7197C125.096 16.7197 124.913 16.7197 124.546 16.7197H124.179C124.179 16.7197 124.179 16.7197 123.996 16.903C123.812 17.0863 123.629 17.4528 123.445 17.6361C122.895 18.5524 122.344 19.2855 121.794 20.0186C120.693 21.4848 119.593 22.0346 119.409 21.668C119.226 21.4848 119.776 20.7517 120.51 19.2855C120.877 18.5524 121.244 17.6361 121.794 16.5365C121.978 16.3532 121.978 15.9867 122.161 15.8034L122.711 15.0703L122.895 14.7038L123.078 14.5205H123.262C123.996 14.5205 124.913 14.5205 125.647 14.5205C126.197 14.5205 126.931 14.5205 127.481 14.5205C128.032 14.5205 128.399 14.5205 128.949 14.5205C129.133 14.7038 129.133 15.0703 129.316 15.2536L129.5 15.8034C129.866 16.903 130.233 17.8194 130.417 18.5524C130.967 20.3851 131.151 21.4848 130.784 21.668Z" fill="#495057"/>
<path d="M106.384 17.6362L97.2104 38.3457" stroke="#495057" stroke-width="2" stroke-miterlimit="10"/>
<path d="M144.5 19L150.414 39.995" stroke="#495057" stroke-width="2" stroke-miterlimit="10"/>
<path d="M114.259 18.8227C115.574 18.6975 116.602 18.1966 116.555 17.7039C116.508 17.2112 115.404 16.9133 114.089 17.0385C112.773 17.1637 111.745 17.6645 111.792 18.1572C111.839 18.6499 112.944 18.9478 114.259 18.8227Z" fill="#495057"/>
<path d="M136.741 18.8227C135.426 18.6975 134.398 18.1966 134.445 17.7039C134.492 17.2112 135.596 16.9133 136.911 17.0385C138.227 17.1637 139.255 17.6645 139.208 18.1572C139.161 18.6499 138.056 18.9478 136.741 18.8227Z" fill="#495057"/>
<path d="M102.714 47.5088C102.347 54.8396 102.347 62.1704 103.081 69.5012C103.264 72.0669 103.631 74.6327 102.898 77.0152C102.531 78.4814 101.613 79.7643 100.329 80.6806C99.0448 81.597 99.2283 83.6129 100.696 84.346C102.714 85.6289 105.283 86.362 107.668 86.9118C118.675 89.6608 130.6 88.9277 141.241 85.2623C142.892 84.7125 144.36 84.1627 145.828 83.2464C147.112 82.5133 147.662 80.8639 146.929 79.3977C146.011 77.7483 145.828 75.7323 145.644 73.8996C144.91 65.8358 143.993 57.5886 143.443 51.1742" fill="white"/>
<path d="M70.608 188.26C67.3056 188.077 65.6545 187.894 62.5356 188.81C59.4168 189.727 56.4814 191.926 55.564 195.041C54.6467 198.524 56.4814 202.006 58.6829 204.938C60.701 207.687 63.2695 210.253 66.2049 211.902C69.1403 213.552 72.8095 214.285 76.2953 213.368C82.533 211.719 86.7527 204.938 92.9904 204.571C94.4581 204.571 96.6597 204.388 97.0266 202.922C97.3935 201.456 95.3754 200.54 93.7243 200.54C89.5046 200.356 85.285 201.822 81.0653 202.372C76.8457 202.922 71.8922 201.822 69.6907 198.34" fill="white"/>
<path d="M69.6906 198.157C69.8741 197.974 70.6079 199.257 72.9929 200.356C75.1945 201.456 78.8637 201.822 83.2669 200.906C85.4684 200.539 88.0369 199.806 90.7888 199.44C91.5227 199.44 92.2565 199.257 92.9904 199.257C93.7242 199.257 94.6415 199.257 95.5588 199.623C96.4762 199.99 97.3935 200.356 98.1273 201.639C98.4942 202.372 98.4942 203.105 98.1273 203.838C97.9439 204.571 97.3935 205.121 96.8431 205.488C95.7423 206.038 94.825 206.038 93.9077 206.221C92.9904 206.221 92.44 206.404 91.7061 206.404C90.4219 206.771 88.9542 207.32 87.67 208.237C84.918 209.886 82.533 212.452 78.8637 214.101C77.0291 215.018 75.011 215.384 73.1764 215.384C71.1583 215.384 69.3237 215.018 67.6725 214.285C64.1867 213.002 61.4348 210.619 59.4167 208.237C57.3986 205.854 55.564 203.289 54.6467 200.356C54.0963 198.89 53.9128 197.424 54.2798 195.958C54.4632 194.492 55.0136 193.209 55.9309 192.109C57.5821 189.91 59.7836 188.993 61.6183 188.26C63.4529 187.711 65.1041 187.527 66.5718 187.527C69.3237 187.711 70.6079 188.077 70.6079 188.26C70.6079 188.444 69.1402 188.444 66.5718 188.627C64.1867 188.993 60.1506 189.727 57.7656 193.209C56.6648 194.858 56.2978 197.057 57.2152 199.44C58.1325 201.822 59.7836 204.022 61.8017 206.221C63.8198 208.42 66.2048 210.436 68.9568 211.352C71.8922 212.452 75.011 212.635 77.9464 211.169C80.8818 209.703 83.4503 207.32 86.3857 205.488C87.8534 204.571 89.5046 203.655 91.3392 203.289C93.1738 202.922 95.0085 203.105 95.5588 202.739C95.7423 202.555 95.7423 202.555 95.7423 202.555C95.7423 202.555 95.3754 202.189 94.825 202.006C93.9077 201.639 92.44 201.822 91.1557 201.822C88.5873 202.006 86.0188 202.555 83.6338 202.922C78.8637 203.655 74.6441 202.922 72.4426 201.273C70.0575 199.806 69.6906 198.157 69.6906 198.157Z" fill="#495057"/>
<path d="M69.3235 197.607C73.3597 199.257 79.9644 197.79 84.184 196.324C85.2848 195.958 86.3855 195.408 87.4863 195.591C88.5871 195.591 89.8713 196.507 89.6879 197.79C89.6879 198.523 89.1375 199.073 88.5871 199.623C85.8352 202.006 82.1659 203.288 78.6801 203.655C75.0109 204.205 71.3416 203.838 67.6724 203.655" fill="white"/>
<path d="M67.6724 203.655C67.6724 203.288 70.2408 203.105 74.4605 202.739C76.4786 202.555 78.8636 202.372 81.432 201.639C82.7163 201.273 84.0005 200.723 85.1013 200.173C85.6517 199.806 86.2021 199.44 86.9359 199.073C87.4863 198.707 88.0367 198.157 88.4036 197.79C88.5871 197.424 88.5871 197.607 88.4036 197.424C88.2202 197.241 87.8532 197.057 87.4863 197.057C86.569 197.057 85.1013 197.607 83.8171 197.974C81.0651 198.707 78.4967 199.073 76.2951 199.257C74.0936 199.257 72.2589 199.073 71.1582 198.707C70.0574 198.34 69.507 197.79 69.507 197.607C69.507 197.424 70.2408 197.424 71.3416 197.607C72.4424 197.607 74.0935 197.607 76.1116 197.241C78.1297 196.874 80.5147 196.324 82.8997 195.408C83.6336 195.225 84.184 195.041 84.9178 194.675C85.6517 194.492 86.569 194.125 87.4863 194.125C88.5871 194.125 89.8713 194.492 90.6052 195.591C90.9721 196.141 91.339 196.874 91.339 197.607C91.339 198.34 90.9721 199.073 90.6052 199.623C89.8713 200.539 89.1375 201.089 88.5871 201.639C87.8532 202.189 87.1194 202.555 86.3855 202.922C84.9178 203.655 83.4501 204.205 81.9824 204.571C79.047 205.304 76.4786 205.304 74.4605 205.121C70.0574 204.571 67.6724 204.022 67.6724 203.655Z" fill="#495057"/>
<path d="M101.063 43.294C101.063 42.3777 100.879 41.2781 100.512 40.3617C100.146 39.4454 99.4117 38.529 98.4944 38.3457C96.8432 37.7959 95.192 39.0788 94.2747 40.545C92.807 42.9275 92.4401 46.2263 93.7243 48.7921C95.0086 51.3579 100.696 52.8241 103.631 53.5571" fill="white"/>
<path d="M103.631 53.5571C103.631 53.7404 101.797 53.5571 99.2282 52.824C97.9439 52.4575 96.2928 51.9077 94.6416 50.6248C93.9078 50.075 93.1739 48.9754 92.9905 47.8757C92.6235 46.7761 92.6235 45.6765 92.6235 44.5769C92.807 42.3776 93.7243 40.1784 95.192 38.8955C95.9259 38.1624 96.8432 37.7959 97.9439 37.7959C98.8613 37.7959 99.7786 38.3457 100.329 38.8955C101.43 39.9951 101.43 41.4613 101.43 42.1944C101.43 42.9274 101.43 43.4773 101.246 43.4773C101.246 43.4773 101.063 43.1107 100.879 42.3776C100.696 41.6446 100.512 40.5449 99.5951 39.6286C99.2282 39.2621 98.4943 38.8955 97.7605 38.8955C97.0266 38.8955 96.2928 39.2621 95.7424 39.8119C94.4582 40.9115 93.7243 42.9274 93.5408 44.7601C93.5408 45.6765 93.5408 46.7761 93.9078 47.6925C94.0912 48.6088 94.4582 49.3419 95.192 49.8917C96.4762 50.9913 98.1274 51.5411 99.4116 52.0909C101.98 53.0073 103.631 53.3738 103.631 53.5571Z" fill="#495057"/>
<path d="M100.512 80.6807L96.1094 88.378L96.8432 107.255L102.897 124.849" fill="white"/>
<path d="M100.512 80.6807L96.1094 88.378L96.8432 107.255L102.897 124.849" stroke="#343A40" stroke-width="2" stroke-miterlimit="10"/>
<path d="M147.112 79.5811L149.313 91.8601L141.608 108.721L140.324 125.398" fill="white"/>
<path d="M147.112 79.5811L149.313 91.8601L141.608 108.721L140.324 125.398" stroke="#495057" stroke-width="2" stroke-miterlimit="10"/>
<path d="M61.0679 88.0117L71.8922 88.3783L82.7165 97.1752L89.3211 110.004L95.3754 124.849" fill="white"/>
<path d="M61.0679 88.0117L71.8922 88.3783L82.7165 97.1752L89.3211 110.004L95.3754 124.849" stroke="#495057" stroke-width="2" stroke-miterlimit="10"/>
<path d="M146.562 124.849L151.148 107.072L166.009 97.3587L179.952 95.8926" fill="white"/>
<path d="M146.562 124.849L151.148 107.072L166.009 97.3587L179.952 95.8926" stroke="#495057" stroke-width="2" stroke-miterlimit="10"/>
<path d="M130.233 317.099C130.967 311.784 130.6 306.103 129.5 300.788C129.316 300.055 129.133 299.322 128.399 299.322C127.665 299.322 127.848 300.788 128.399 300.238C128.215 298.955 128.032 297.672 128.032 296.206C128.215 296.573 128.582 296.756 128.766 297.122" fill="white"/>
<path d="M128.582 297.122C128.399 297.306 128.032 297.122 127.482 296.573L128.582 296.023C128.949 296.939 129.316 298.222 129.683 299.871L129.867 300.605L129.316 300.971C129.133 300.971 129.133 301.154 128.949 301.154C128.766 301.154 128.582 301.338 128.399 301.338C127.848 301.338 127.482 300.971 127.298 300.788C126.931 300.238 126.931 299.871 126.931 299.688C126.931 299.322 126.931 298.955 127.115 298.589C127.298 298.222 128.032 297.672 128.582 297.672C129.316 297.672 130.05 298.222 130.417 298.772C130.784 299.322 130.967 299.688 130.967 300.055C131.334 301.338 131.518 302.621 131.885 304.087C132.802 311.234 131.334 316.916 130.417 316.732C129.5 316.549 129.683 311.051 128.766 304.453C128.582 303.17 128.399 301.704 128.215 300.605C128.215 300.421 128.032 300.238 128.032 300.238L128.215 300.055L128.399 299.871V299.505C128.399 299.322 128.399 299.322 128.582 299.505C128.766 299.688 128.949 299.688 128.949 299.688C128.949 299.688 128.582 299.688 128.399 299.871C128.215 299.871 128.215 300.055 128.215 300.055C128.215 300.055 128.215 299.871 128.032 299.688L127.115 300.238C127.115 298.589 127.115 297.122 127.298 296.206L127.665 294.007L128.399 295.84C128.582 296.573 128.582 297.122 128.582 297.122Z" fill="#495057"/>
<path d="M181.236 260.285C190.226 316.366 190.409 373.912 181.786 430.176Z" fill="white"/>
<path d="M181.786 429.993C181.603 429.993 181.786 427.61 182.153 423.212C182.337 421.013 182.704 418.447 182.887 415.331C183.254 412.216 183.621 408.734 183.804 405.068C184.538 397.371 185.089 388.207 185.639 378.128C186.189 368.048 186.373 356.868 186.373 345.139C186.373 333.41 186.006 322.23 185.456 312.15C184.905 302.071 184.171 292.907 183.437 285.21C183.071 281.361 182.704 277.879 182.337 274.947C181.97 271.831 181.786 269.265 181.419 267.066C181.052 262.851 180.869 260.468 181.052 260.285C181.236 260.285 181.786 262.668 182.704 266.883C183.071 269.082 183.621 271.648 183.988 274.58C184.538 277.696 185.089 280.995 185.456 284.843C186.556 292.541 187.474 301.704 188.207 311.784C188.941 322.047 189.308 333.226 189.492 344.956C189.492 356.685 189.125 368.048 188.391 378.128C187.657 388.391 186.74 397.554 185.822 405.252C185.456 409.1 184.905 412.582 184.355 415.515C183.988 418.63 183.437 421.196 183.071 423.212C182.52 427.794 181.97 429.993 181.786 429.993Z" fill="#495057"/>
<path d="M143.443 51.1745C143.81 51.1745 144.911 57.5889 146.195 68.2186C146.378 69.5015 146.562 70.9676 146.745 72.4338C146.929 73.8999 147.112 75.3661 147.479 76.8323C147.662 77.5653 147.846 78.1152 148.213 78.8482C148.213 79.0315 148.396 79.2148 148.58 79.5813C148.763 79.9479 148.763 80.1311 148.763 80.4977C148.763 81.0475 148.763 81.7805 148.58 82.3304C148.396 82.8802 148.029 83.43 147.662 83.9798C147.296 84.5296 146.562 84.8961 146.378 85.0794C145.644 85.4459 144.727 85.9957 143.81 86.3623C137.022 89.1113 129.133 90.7608 120.693 90.5775C116.474 90.5775 112.438 90.0277 108.585 89.1113C106.75 88.7448 104.732 88.195 102.898 87.4619C101.98 87.0954 101.063 86.7288 100.329 86.179C100.146 85.9957 99.7787 85.8125 99.5953 85.6292C99.4118 85.4459 99.0449 85.0794 98.8614 84.7129C98.4945 84.1631 98.311 83.43 98.311 82.6969C98.311 81.9638 98.4945 81.2307 99.0449 80.6809C99.2283 80.3144 99.5953 80.1311 99.7787 79.9478C99.9622 79.7646 99.9622 79.7646 100.146 79.5813C100.696 79.0315 101.063 78.4817 101.43 77.9319C101.98 76.649 102.347 75.1828 102.347 73.7167C102.347 70.7844 101.98 67.6688 101.98 65.103C101.613 54.2901 102.714 47.6924 103.081 47.6924C103.631 47.6924 103.265 54.2901 104.182 64.9197C104.365 67.6688 104.916 70.4178 104.916 73.7167C104.916 75.3661 104.732 77.1988 103.998 79.0315C103.631 79.9478 103.081 80.6809 102.347 81.414C102.164 81.5973 101.98 81.7805 101.797 81.9638C101.613 82.1471 101.613 82.1471 101.613 82.1471C101.613 82.3304 101.43 82.3304 101.43 82.5136C101.43 82.6969 101.43 82.8802 101.613 83.0634L101.797 83.2467C101.797 83.2467 101.98 83.2467 102.164 83.43C102.898 83.7965 103.631 84.163 104.365 84.5296C106.016 85.0794 107.668 85.6292 109.502 85.9958C113.171 86.7288 117.024 87.2786 121.06 87.2786C128.949 87.4619 136.655 85.9957 143.076 83.43C143.81 83.0634 144.544 82.6969 145.277 82.3304C145.644 82.1471 145.828 82.1471 146.011 81.7805C146.195 81.5973 146.378 81.414 146.378 81.2307C146.378 81.0475 146.562 80.8642 146.378 80.4977C146.378 80.3144 146.378 80.3144 146.378 80.1311C146.378 79.9478 146.378 79.9478 146.195 79.7646C145.828 78.8482 145.461 78.1151 145.461 77.1988C145.094 75.5494 145.094 73.8999 144.91 72.6171C144.727 71.1509 144.727 69.6847 144.544 68.4019C143.259 57.7722 143.076 51.1745 143.443 51.1745Z" fill="#495057"/>
<path d="M149.68 31.3811C148.946 32.8473 148.029 34.4967 146.745 35.5963C145.461 36.696 143.626 37.2458 141.975 36.5127C141.058 36.1462 140.507 35.2298 139.957 34.4967V34.3135C139.773 33.9469 139.59 33.5804 139.406 33.0306C137.572 29.3652 135.37 25.6998 132.068 23.3173C129.133 21.3013 125.28 20.5682 121.977 21.8511C119.592 23.3173 117.391 25.3332 115.74 27.7157C113.905 30.0983 112.621 33.0306 110.236 35.0465C107.851 37.0625 101.246 35.7796 99.0447 33.5804C99.595 36.5127 98.6777 41.2777 98.6777 44.21C98.6777 47.1423 102.164 50.6245 103.264 53.3735C104.365 56.1225 106.75 59.4214 106.75 59.4214C106.75 59.4214 115.189 57.9552 117.941 57.0389C123.445 55.2062 129.683 55.5727 135.003 57.9552C136.471 58.6883 141.058 60.521 141.058 60.521C141.058 60.521 142.342 57.772 143.443 56.4891C146.992 51.9975 148.405 46.5149 149.06 40.828C149.156 39.988 150.5 39.9998 151 39.9998C151.5 39.9998 152 40.4998 152 40.4998C152 40.4998 149.607 33.1287 149.68 31.3811ZM135.737 41.2777L133.352 38.8952L131.701 37.7956C130.05 36.696 130.417 34.4967 131.334 32.8473L130.417 32.664L121.611 33.0306L121.977 33.5804C122.711 34.3135 123.078 35.4131 123.078 36.3294C123.078 37.2458 122.711 38.3454 121.794 39.0785L117.391 41.6442L114.089 38.8952L115.74 32.1142C115.74 32.1142 118.675 27.1659 119.776 26.0663C121.06 24.9667 126.747 24.4169 126.747 24.4169L131.701 25.8831L136.654 31.7477L138.122 34.3135L139.406 38.1621L135.737 41.2777Z" fill="#495057"/>
<path d="M68.5899 260.468C57.949 300.421 60.334 343.673 75.1945 382.343Z" fill="white"/>
<path d="M75.1945 382.343C75.011 382.343 74.2772 380.876 72.9929 377.944C72.4425 376.478 71.7087 374.645 70.9748 372.629C70.241 370.43 69.3237 368.047 68.5898 365.482C67.856 362.733 66.9387 359.8 66.2048 356.501C65.2875 353.203 64.7371 349.72 64.0032 346.055C62.719 338.724 61.6182 330.477 61.0678 321.863C60.7009 313.25 60.8844 305.003 61.4348 297.489C61.8017 293.823 61.9852 290.158 62.5356 286.859C62.9025 283.56 63.4529 280.445 64.0032 277.695C64.5536 274.946 65.104 272.381 65.6544 270.181C66.2048 267.982 66.7552 266.149 67.1221 264.683C68.0394 261.751 68.5898 260.102 68.7733 260.102C69.3237 260.285 67.6725 267.066 66.0213 278.062C65.6544 280.811 65.2875 283.927 64.9206 287.042C64.5536 290.341 64.3702 293.823 64.0032 297.489C63.6363 304.819 63.4529 312.883 64.0032 321.497C64.5536 329.927 65.471 337.991 66.5717 345.322C67.3056 348.987 67.856 352.47 68.5898 355.585C69.1402 358.884 70.0575 361.816 70.6079 364.382C73.3598 375.745 75.5614 382.159 75.1945 382.343Z" fill="#495057"/>
<path d="M137.939 357.785C140.508 370.064 131.885 385.458 136.105 395.905C140.324 406.351 146.562 415.881 150.782 426.328" fill="white"/>
<path d="M150.598 426.328C150.231 426.511 148.396 422.845 145.278 417.164C143.626 414.232 141.792 410.933 139.774 407.084C138.673 405.252 137.756 403.052 136.655 401.036C135.738 398.837 134.637 396.638 133.903 393.889C133.353 391.14 133.353 388.574 133.536 386.191C133.719 383.809 134.27 381.426 134.637 379.411C135.554 375.195 136.471 371.347 137.022 368.231C137.572 365.115 137.756 362.55 137.756 360.717C137.756 358.884 137.756 357.968 137.939 357.785C138.123 357.785 138.489 358.701 138.856 360.534C139.223 362.366 139.407 365.115 139.04 368.414C138.856 371.713 138.123 375.562 137.389 379.96C136.655 384.176 135.921 388.941 136.838 393.339C137.389 395.355 138.489 397.737 139.407 399.937C140.324 402.136 141.425 404.152 142.342 405.985C144.177 409.833 146.011 413.315 147.296 416.431C149.864 422.296 150.965 426.328 150.598 426.328Z" fill="#495057"/>
<path d="M68.4067 497.253C67.8564 492.304 67.4894 486.806 70.4248 482.774C72.9933 479.109 77.5799 477.46 81.7995 475.994C84.0011 475.26 86.5695 474.527 88.5876 475.81C90.0553 476.91 90.7892 478.743 91.1561 480.575C92.6238 486.257 94.275 491.755 95.7427 497.436" fill="white"/>
<path d="M95.7427 497.619C95.3758 497.803 94.0915 494.687 92.4404 489.555C91.523 486.99 90.6057 484.057 89.6884 480.759C89.138 479.109 88.5876 477.643 87.4869 477.093C86.3861 476.543 84.7349 476.727 82.9003 477.276C79.0476 478.559 75.5618 479.659 73.1768 481.675C70.7918 483.691 69.691 486.44 69.3241 488.822C68.9572 491.205 68.9572 493.404 68.7737 494.87C68.7737 496.336 68.5902 497.253 68.4068 497.253C68.2233 497.253 67.8564 496.52 67.6729 495.054C67.306 493.587 66.9391 491.388 67.1225 488.639C67.306 487.173 67.4895 485.707 68.2233 484.057C68.7737 482.408 69.8745 480.942 71.3422 479.476C74.2776 476.91 78.1303 475.444 81.983 474.161C83.0838 473.794 84.0011 473.611 85.2853 473.428C86.3861 473.428 87.8538 473.611 88.9546 474.161C90.0553 474.894 90.9727 475.81 91.3396 476.91C91.89 477.826 92.0734 478.926 92.2569 479.659C93.1742 483.141 93.9081 486.073 94.4584 488.639C95.5592 494.137 96.1096 497.436 95.7427 497.619Z" fill="#495057"/>
<path d="M136.105 174.882H111.337L115.006 154.355V150.14H139.774V155.088L136.105 174.882Z" fill="white"/>
<path d="M136.105 174.882C134.27 175.065 132.252 175.431 130.234 175.615L124.18 176.348L117.758 176.898C115.557 177.081 113.355 177.264 111.154 177.264L108.218 177.447L108.585 174.148C108.952 170.666 109.502 167.184 110.053 163.885C110.42 160.403 111.154 157.104 111.704 153.622V154.172V150.14V146.841H115.006H121.244C123.262 146.841 125.28 146.841 127.482 147.025C131.518 147.208 135.738 147.208 139.774 147.574L142.526 147.758L142.342 150.14L141.975 155.088V155.455C141.058 158.937 140.141 162.419 139.04 165.718L137.572 170.483C137.205 171.949 136.655 173.415 136.105 174.882ZM135.921 174.698L139.407 155.088V150.14L139.59 150.323H115.006L115.373 149.957V153.989L111.704 174.515L111.521 174.148L135.921 174.698Z" fill="#495057"/>
<path d="M121.794 157.288C121.244 159.487 120.694 161.869 120.143 164.069Z" fill="white"/>
<path d="M120.143 164.068C119.226 163.885 118.676 162.053 119.226 160.22C119.776 158.387 120.877 156.921 121.978 157.287C122.895 157.471 123.446 159.303 122.895 161.136C122.345 162.969 121.244 164.435 120.143 164.068Z" fill="#495057"/>
<path d="M128.399 157.654C127.849 159.854 127.298 162.236 126.748 164.435Z" fill="white"/>
<path d="M126.748 164.435C125.83 164.252 125.28 162.419 125.83 160.587C126.381 158.754 127.482 157.288 128.399 157.654C129.316 157.837 129.867 159.67 129.316 161.503C128.766 163.336 127.849 164.802 126.748 164.435Z" fill="#495057"/>
<path d="M116.474 168.101C118.309 169.933 121.061 171.033 123.629 170.85C126.198 170.666 128.766 169.2 130.234 167.001" fill="white"/>
<path d="M130.234 167.001C130.601 167.184 130.601 168.284 129.5 169.75C128.583 171.033 126.381 172.499 123.813 172.682C121.061 172.865 118.859 171.766 117.575 170.666C116.291 169.567 116.107 168.467 116.474 168.1C117.208 167.367 119.96 169.2 123.446 169.017C126.931 168.65 129.316 166.451 130.234 167.001Z" fill="#495057"/>
</svg>
