<svg width="526" height="415" viewBox="0 0 526 415" fill="none" xmlns="http://www.w3.org/2000/svg">
<g style="mix-blend-mode:multiply">
<path d="M509.5 52V22.5H482.5L478 52H509.5Z" fill="url(#paint0_linear)"/>
</g>
<g style="mix-blend-mode:multiply">
<path d="M501.5 94.5V65H474.5L470 94.5H501.5Z" fill="url(#paint1_linear)"/>
</g>
<g style="mix-blend-mode:multiply">
<path d="M473.5 51.5V22H446.5L442 51.5H473.5Z" fill="url(#paint2_linear)"/>
</g>
<g style="mix-blend-mode:multiply">
<path d="M488.5 29.5V0H461.5L457 29.5H488.5Z" fill="url(#paint3_linear)"/>
</g>
<g style="mix-blend-mode:multiply">
<path d="M442.5 42.5V13H415.5L411 42.5H442.5Z" fill="url(#paint4_linear)"/>
</g>
<path d="M481.942 27.4632H457.665L461.262 7.35942V3.23096H485.538V8.07741L481.942 27.4632Z" fill="white"/>
<path d="M481.942 27.4632C480.144 27.6427 478.166 28.0017 476.187 28.1812L470.253 28.8992L463.959 29.4377C461.801 29.6172 459.643 29.7967 457.485 29.7967L454.608 29.9762L454.968 26.7452C455.327 23.3348 455.867 19.9243 456.406 16.6933C456.766 13.2829 457.485 10.0519 458.025 6.64144V7.17993V3.23097V0H461.262H467.376C469.354 0 471.332 0 473.49 0.179498C477.446 0.358997 481.582 0.358997 485.539 0.717993L488.236 0.897491L488.056 3.23097L487.696 8.07742V8.43642C486.797 11.8469 485.898 15.2574 484.819 18.4883L483.381 23.1553C483.021 24.5913 482.481 26.0272 481.942 27.4632ZM481.762 27.2837L485.179 8.07742V3.23097L485.539 3.58997H461.441L461.801 3.23097V7.17993L458.204 27.2837L458.025 26.9247L481.762 27.2837Z" fill="#495057"/>
<path d="M495.789 87.9541H471.512L475.108 67.8503V63.9014H499.385V68.7478L495.789 87.9541Z" fill="white"/>
<path d="M495.789 88.1337C493.99 88.3132 492.012 88.6722 490.034 88.8517L484.1 89.5696L477.806 90.1081C475.648 90.2876 473.49 90.4671 471.332 90.4671L468.455 90.6466L468.814 87.4157C469.174 84.0052 469.714 80.5947 470.253 77.3638C470.613 73.9533 471.332 70.7223 471.871 67.3119V67.8503V63.9014V60.6704H475.108H481.223C483.201 60.6704 485.179 60.6704 487.337 60.8499C491.293 61.0294 495.429 61.0294 499.385 61.3884L502.083 61.5679L501.903 63.9014L501.543 68.7478V69.1068C500.644 72.5173 499.745 75.9278 498.666 79.1587L497.227 83.8257C496.868 85.2617 496.328 86.6977 495.789 88.1337ZM495.609 87.9542L499.026 68.7478V63.9014L499.205 64.0809H475.108L475.468 63.7219V67.6708L471.871 87.7747L471.692 87.4157L495.609 87.9542Z" fill="#495057"/>
<path d="M262.91 415C408.111 415 525.82 412.991 525.82 410.512C525.82 408.034 408.111 406.025 262.91 406.025C117.709 406.025 0 408.034 0 410.512C0 412.991 117.709 415 262.91 415Z" fill="#495057"/>
<path d="M26.0267 225L12 410.781H20.6318L38.0752 225H26.0267Z" fill="white"/>
<path d="M29.6718 224.732L27.5138 272.299C26.4349 287.736 25.3559 303.173 24.2769 318.43L17.4434 410.692L15.6451 408.718H24.2769L22.4786 410.333L31.1104 317.353L35.4263 270.863C35.9658 263.144 37.0448 255.426 38.1237 247.708L41.1808 224.552L41.7203 225.091C37.9439 225.091 33.8078 224.732 29.6718 224.732ZM29.6718 224.732L41.7203 224.193H42.2598V224.732L40.8212 248.067C40.2817 255.785 40.1019 263.683 39.2027 271.401L34.8868 317.712L26.255 410.692L26.0752 412.308H24.4567H15.6451H13.667L13.8468 410.333L21.04 316.814C22.2988 301.198 23.3778 285.582 24.8164 270.145L29.6718 224.732Z" fill="#495057"/>
<path d="M81.4188 224.732L67.3921 410.513H76.0239L93.4673 224.732H81.4188Z" fill="white"/>
<path d="M85.4187 224.732L83.2608 272.299C82.1818 287.736 81.1028 303.173 80.0239 318.43L73.1904 410.692L71.3921 408.718H80.0239L78.2256 410.333L86.8574 317.353L91.1733 270.863C91.7128 263.144 92.7917 255.426 93.8707 247.708L96.9278 224.552L97.4673 225.091C93.5111 225.091 89.5548 224.732 85.4187 224.732ZM85.4187 224.732L97.4673 224.193H98.0068V224.732L96.5682 248.067C96.0287 255.785 95.8488 263.683 94.9497 271.401L90.454 317.712L81.8222 410.692L81.6423 412.308H80.0239H71.3921H69.4139L69.5938 410.333L76.7869 316.814C78.0457 301.198 79.1247 285.582 80.5634 270.145L85.4187 224.732Z" fill="#495057"/>
<path d="M480.28 224.731L494.306 410.512H485.675L468.231 224.731H480.28Z" fill="white"/>
<path d="M484.28 224.732L489.135 270.145C490.394 285.582 491.653 301.198 492.911 316.814L500.105 410.333L500.284 412.307H498.306H489.675H488.056L487.876 410.692L479.244 317.712L474.929 271.222C474.029 263.503 473.67 255.785 473.31 247.887L471.871 224.552V224.014H472.411L484.28 224.732ZM484.28 224.732C480.144 224.911 476.187 225.091 472.231 225.27L472.771 224.732L475.828 247.887C476.727 255.605 477.986 263.324 478.525 271.042L482.841 317.532L491.473 410.512L489.675 408.897H498.306L496.508 410.871L489.675 318.609C488.596 303.172 487.337 287.915 486.438 272.478L484.28 224.732Z" fill="#495057"/>
<path d="M434.603 224.731L448.81 410.512H439.998L422.554 224.731H434.603Z" fill="white"/>
<path d="M438.603 224.732L443.458 270.145C444.717 285.582 445.976 301.198 447.235 316.814L454.428 410.333L454.608 412.307H452.63H443.998H442.379L442.2 410.692L433.568 317.712L429.252 271.222C428.353 263.503 427.993 255.785 427.633 247.887L426.195 224.552V224.014H426.734L438.603 224.732ZM438.603 224.732C434.467 224.911 430.511 225.091 426.554 225.27L427.094 224.732L430.151 247.887C431.05 255.605 432.309 263.324 432.848 271.042L437.164 317.532L445.796 410.512L443.998 408.897H452.63L450.831 410.871L443.998 318.609C442.919 303.172 441.66 287.915 440.761 272.478L438.603 224.732Z" fill="#495057"/>
<path d="M297.977 96.7495L315.96 107.878L339.337 103.211L347.789 91.185L341.855 77.9022L344.912 71.9787L348.509 60.6703L342.215 54.5674L316.319 74.6712L297.977 96.7495Z" fill="white" stroke="#495057" stroke-miterlimit="10"/>
<path d="M316.499 410.513H325.85L334.5 295L323 302.5L316.499 410.513Z" fill="white" stroke="#495057" stroke-width="2" stroke-miterlimit="10"/>
<path d="M207.479 299.455H315.556C318.973 299.455 322.21 298.198 324.548 295.685C328.684 291.557 334.079 289.223 340.013 289.223H393.242L396.839 286.351C400.795 283.12 402.773 278.094 401.874 273.069C398.637 252.785 391.624 198.397 402.414 156.215C403.133 153.523 401.874 150.83 399.357 149.753C381.194 142.573 309.982 145.445 309.982 145.445L296.854 259.965L218.628 261.94L207.479 299.455Z" fill="white"/>
<path d="M211.479 302.455L305.709 301.557H317.398C319.376 301.557 321.175 301.557 322.973 301.019C324.771 300.48 326.21 299.583 327.469 298.326C330.346 295.454 333.943 293.121 337.899 292.044C339.877 291.505 342.035 291.146 344.013 291.146H349.947L397.063 290.787L396.163 291.146L399.041 288.813C400.12 288.095 400.839 287.377 401.558 286.479C402.997 284.864 403.896 282.71 404.256 280.556C404.436 279.479 404.436 278.402 404.436 277.325C404.256 276.248 404.076 274.991 403.896 273.735C403.536 271.401 403.177 268.888 402.817 266.375C401.558 256.682 400.479 246.99 399.76 237.117C398.501 217.552 398.321 197.807 400.839 178.242C401.019 175.729 401.558 173.395 401.918 170.882C402.278 168.369 402.817 166.036 403.357 163.702L404.256 160.112L404.615 158.497C404.615 158.138 404.795 157.599 404.615 157.24C404.436 156.343 404.076 155.625 403.536 155.086C403.177 154.727 402.997 154.548 402.457 154.368C401.918 154.189 401.378 154.009 400.839 153.83C398.681 153.112 396.343 152.753 394.006 152.214C391.668 151.855 389.33 151.496 386.812 151.317C381.957 150.778 377.102 150.419 372.246 150.24C352.825 149.343 333.223 149.522 313.802 150.06L315.42 148.625L308.767 205.884L301.933 263.144L301.753 264.042H300.854L261.651 264.76L222.449 265.298L222.808 264.939L211.479 302.455ZM211.479 302.455L222.089 265.119V264.76H222.449L261.651 263.324L300.854 262.067L299.775 262.965L305.889 205.705L312.183 148.445L312.363 147.009H313.802C333.403 146.291 353.004 146.112 372.606 147.009C377.461 147.189 382.496 147.548 387.352 148.086C392.207 148.625 397.242 149.163 402.098 150.778C402.817 150.958 403.357 151.137 403.896 151.317C404.615 151.676 405.335 152.035 405.874 152.573C407.133 153.65 407.852 155.266 408.032 156.881C408.212 157.599 408.032 158.497 408.032 159.215L407.673 161.01L406.953 164.6C406.414 166.933 405.874 169.267 405.515 171.78C405.155 174.113 404.615 176.626 404.436 178.96C401.738 198.166 401.918 217.731 402.997 237.117C403.536 246.81 404.615 256.503 405.874 266.196C406.234 268.529 406.594 271.042 406.953 273.376C407.133 274.632 407.313 275.709 407.493 277.145C407.673 278.581 407.493 279.838 407.313 281.274C406.773 283.966 405.694 286.479 403.896 288.633C402.997 289.71 401.918 290.608 401.019 291.326L398.142 293.659L397.782 294.018H397.242L350.127 293.659H344.193C342.395 293.659 340.416 293.839 338.618 294.377C335.022 295.275 331.785 297.249 329.087 299.942C327.469 301.378 325.67 302.455 323.513 303.173C322.434 303.532 321.355 303.711 320.455 303.711C319.376 303.711 318.477 303.711 317.398 303.711H305.53L211.479 302.455Z" fill="#495057"/>
<path d="M208.242 410.513H217.593L226.585 292.223H214.176L208.242 410.513Z" fill="white" stroke="#495057" stroke-width="2" stroke-miterlimit="10"/>
<path d="M384.474 292.223L399.221 410.513H407.133L397.063 292.223H384.474Z" fill="white" stroke="#495057" stroke-width="2" stroke-miterlimit="10"/>
<path d="M169.938 345.714L167.421 381.434L198.711 386.639L200.689 345.714H169.938Z" fill="white" stroke="#495057" stroke-width="2" stroke-miterlimit="10"/>
<path d="M182.527 373.536H167.061L153.754 391.486L132.354 393.999L126.959 403.512L129.477 410.513H204.106L207.703 405.487L203.566 377.485L194.575 386.999L182.527 373.536Z" fill="white" stroke="#495057" stroke-width="2" stroke-miterlimit="10"/>
<path d="M269.923 345.714L267.406 381.434L298.696 386.639L300.674 345.714H269.923Z" fill="white" stroke="#495057" stroke-width="2" stroke-miterlimit="10"/>
<path d="M341.316 74.8508C341.136 78.2612 340.776 81.8512 340.956 85.4412C341.136 87.9541 345.272 89.5696 347.07 90.8261C348.329 91.7236 349.588 89.5696 348.329 88.6721C346.531 87.4156 344.552 86.1592 342.754 84.9027C342.934 85.2617 343.114 85.6207 343.294 85.9797C343.473 82.2102 343.653 78.6202 343.653 74.8508C344.013 73.2353 341.495 73.2353 341.316 74.8508Z" fill="#495057"/>
<path d="M335.381 74.4919L334.302 84.9028L314.701 99.8011L295.819 96.3907L292.222 86.6978L288.086 70.9019L291.683 63.5425L288.985 57.978L291.503 54.0291L294.74 42.1822L301.933 36.7972L316.499 31.5918L332.864 32.4893L343.653 39.3102L349.588 53.8496L346.89 60.491" fill="white"/>
<path d="M334.302 74.4917C333.943 77.3637 334.302 81.4921 333.223 84.0051C332.864 84.7231 333.763 83.1076 332.684 84.5436C331.605 85.8001 329.447 87.0566 328.008 88.1335C324.771 90.6465 321.354 93.1595 318.118 95.6725C317.218 96.3905 316.139 97.647 315.06 98.006C313.442 98.7239 315.96 98.006 313.982 98.1855C310.565 98.5445 305.709 96.7495 302.472 96.0315C297.977 95.134 297.617 96.0315 296.538 93.339C294.021 87.4156 292.582 81.1331 290.963 75.0302C289.884 71.0812 289.705 71.2607 291.323 67.6707C292.222 65.6963 293.301 64.4398 292.942 62.4653C292.762 61.0293 291.323 59.9523 291.143 58.5163C290.963 56.7213 291.683 57.6188 292.582 55.1059C293.481 52.5929 294.2 50.0799 294.92 47.5669C296.538 41.6435 299.775 39.31 305.889 36.797C312.903 33.9251 317.578 32.8481 325.131 33.2071C331.605 33.5661 339.697 35.361 343.114 40.028C345.092 42.7205 346.89 48.1054 347.61 51.1569C348.689 54.9264 347.789 56.0034 346.171 59.9523C345.631 61.3883 347.969 62.1063 348.509 60.6703C349.408 58.3368 351.206 55.6444 351.026 53.1314C350.846 49.7209 347.61 43.4385 345.811 40.387C343.473 36.2585 337.899 32.3096 333.223 31.0531C322.074 27.6426 302.113 31.0531 294.56 40.746C293.121 42.541 292.762 45.2335 292.222 47.5669C291.683 49.3619 291.503 51.5159 290.604 53.1314C290.064 54.3879 288.086 55.8239 288.086 57.2598C287.906 59.0548 290.604 62.8243 290.604 63.0038C290.604 65.8758 287.187 68.3887 287.187 71.2607C287.187 77.7226 291.143 86.3386 293.301 92.4415C294.021 94.416 294.2 96.211 295.819 97.4675C298.876 99.6214 306.429 99.2624 310.025 99.9804C312.363 100.339 313.802 100.878 315.78 100.339C320.096 98.724 324.771 93.5185 328.548 90.6465C330.346 89.2105 334.122 87.4156 335.381 85.4411C337 82.9281 336.46 77.5432 336.82 74.4917C336.82 73.0557 334.482 73.0557 334.302 74.4917Z" fill="#495057"/>
<path d="M298.157 62.6449C298.876 67.1324 302.652 71.0813 307.328 70.3633C312.003 69.6453 314.701 64.9784 314.161 60.6704C313.622 56.183 309.845 52.234 305.17 52.7725C300.315 53.311 297.617 57.7984 297.977 62.4654C298.157 64.0809 300.494 64.0809 300.494 62.4654C300.315 59.5934 301.573 56.183 304.81 55.465C308.407 54.5675 311.464 57.7985 311.644 61.0294C312.003 64.2604 310.205 67.4914 306.788 68.0299C303.192 68.3889 301.034 65.3374 300.494 62.1064C300.315 60.3114 297.977 61.0294 298.157 62.6449Z" fill="#495057"/>
<path d="M294.92 59.4138C292.762 54.5673 286.648 52.5928 283.59 57.9778C281.073 62.4652 283.051 69.4657 288.266 70.9017C289.884 71.2607 290.424 68.9272 288.985 68.5682C285.748 67.6707 284.49 63.5422 285.389 60.4908C285.928 58.8753 287.007 57.4393 288.806 57.2598C290.963 57.0803 292.042 59.0548 292.762 60.6703C293.301 62.1062 295.459 60.8497 294.92 59.4138Z" fill="#495057"/>
<path d="M346.89 59.7727C347.43 61.3882 348.149 63.0037 347.61 64.6192C346.71 66.7731 345.272 68.7476 344.193 70.7221C343.114 72.5171 342.574 73.7736 340.416 74.312C338.079 74.8505 337 73.2351 335.381 71.7991C334.122 70.7221 332.504 72.5171 333.583 73.5941C335.561 75.389 337.359 77.902 340.237 77.184C342.574 76.6455 344.193 75.5685 345.452 73.5941C346.89 71.0811 348.509 68.3886 349.768 65.8756C350.847 63.5422 349.947 61.7472 349.228 59.2342C348.868 57.6187 346.351 58.1572 346.89 59.7727Z" fill="#495057"/>
<path d="M338.259 59.5931L341.675 57.4391C342.395 57.0802 343.114 56.9007 343.833 57.2596L346.711 58.3366C347.43 58.5161 347.789 59.0546 347.969 59.5931" stroke="#010101" stroke-width="0.7782" stroke-miterlimit="10"/>
<path d="M288.266 80.9536L291.323 94.7749L303.551 102.852L329.806 91.7235L336.46 85.6205L332.684 74.8506L334.842 61.2088L337.539 60.1318L349.408 58.3368L349.588 46.8489L346.351 38.233L335.561 31.2326L331.425 32.3095L328.728 29.2581L314.341 24.4116L297.437 30.8736L295.279 38.7715L290.604 43.4384L306.609 36.079L318.297 34.8225L329.087 39.4895L331.605 36.9765L330.706 39.8485L327.828 46.6694L327.649 52.0544L329.806 58.1573L330.706 59.5933L325.67 77.1841L316.679 82.2101L313.262 81.4921L309.306 75.7481L301.573 72.1582L294.021 72.6967L290.244 76.6456L288.266 80.9536ZM291.143 84.364L291.323 80.0561L293.841 77.1841L296.358 75.9276L301.034 76.4661L308.407 79.5176L310.565 83.2871L311.464 84.9025L312.363 89.39L309.126 92.8005L302.472 92.0825L300.494 90.108L301.753 86.3385L303.731 84.723L301.933 84.5435L296.718 84.1845L294.021 85.2615L295.999 86.518L297.078 89.39L294.92 90.826L291.863 90.2875L291.143 84.364Z" fill="#495057"/>
<path d="M304.451 50.439L312.543 51.6955C313.082 51.6955 313.622 51.516 313.622 50.9775C313.802 50.439 313.442 50.08 312.903 49.9005L304.81 48.644C304.271 48.644 303.731 48.8235 303.731 49.362C303.552 49.9005 303.911 50.439 304.451 50.439Z" fill="#495057"/>
<path d="M303.372 61.9269L308.227 61.5679C308.587 61.5679 308.767 61.2089 308.767 60.6704C308.767 60.1319 308.407 59.7729 308.227 59.7729L303.372 60.1319C303.012 60.1319 302.832 60.4909 302.832 61.0294C302.832 61.5679 303.192 61.9269 303.372 61.9269Z" fill="#495057"/>
<path d="M286.288 53.6699L294.021 51.1569C294.56 50.9774 294.92 50.4389 294.74 50.0799C294.56 49.5414 294.021 49.3619 293.481 49.5414L285.748 52.0544C285.209 52.2339 284.849 52.7724 285.029 53.1314C285.209 53.4904 285.748 53.8494 286.288 53.6699Z" fill="#495057"/>
<path d="M285.569 63.3628L288.985 63.0038C289.525 63.0038 289.884 62.4653 289.884 61.9268C289.884 61.3883 289.345 61.0293 288.805 61.2088L285.389 61.5678C284.849 61.5678 284.49 62.1063 284.49 62.6448C284.49 63.1833 285.029 63.3628 285.569 63.3628Z" fill="#495057"/>
<path d="M305.676 63.7056C306.366 63.628 306.855 62.9263 306.766 62.1382C306.677 61.3501 306.045 60.7741 305.354 60.8517C304.663 60.9293 304.175 61.631 304.264 62.4191C304.353 63.2072 304.985 63.7832 305.676 63.7056Z" fill="#495057"/>
<path d="M287.513 64.9473C288.204 64.8697 288.692 64.168 288.603 63.3799C288.514 62.5918 287.882 62.0158 287.191 62.0934C286.5 62.171 286.012 62.8728 286.101 63.6608C286.19 64.4489 286.822 65.0249 287.513 64.9473Z" fill="#495057"/>
<path d="M300.674 67.8504C299.955 68.7479 299.415 69.6454 298.696 70.5429C299.056 70.3634 299.415 70.1839 299.775 70.0044C297.437 69.8249 295.099 69.6454 292.762 69.6454C293.121 69.8249 293.481 70.0044 293.841 70.1839C293.121 69.2864 292.582 68.3889 291.863 67.4914C291.863 67.8504 291.863 68.3889 291.863 68.7479C294.02 65.5169 295.999 62.4654 298.157 59.2345C299.056 57.978 296.898 56.7215 295.999 57.978C293.841 61.2089 291.863 64.2604 289.705 67.4914C289.525 67.8504 289.525 68.3889 289.705 68.7479C290.424 69.6454 291.143 71.4403 292.222 71.9788C293.301 72.5173 295.279 72.3378 296.358 72.3378C297.437 72.3378 299.235 72.8763 300.314 72.5173C301.393 71.9788 302.293 70.1839 303.012 69.2864C303.731 67.8504 301.573 66.5939 300.674 67.8504Z" fill="#495057"/>
<path d="M306.069 80.0562C306.069 80.0562 299.236 82.0306 295.459 81.4921Z" fill="#010101"/>
<path d="M305.709 78.7996C302.472 79.6971 298.876 80.5945 295.459 80.2355C293.841 80.056 293.841 82.569 295.459 82.7485C299.056 83.1075 303.012 82.21 306.429 81.3125C307.867 80.774 307.148 78.4406 305.709 78.7996Z" fill="#495057"/>
<path d="M308.047 82.5693C308.227 79.6973 306.069 78.4408 303.911 77.9023Z" fill="#495057"/>
<path d="M343.833 57.2597C347.61 59.4137 348.329 59.9522 347.969 64.4396C347.789 68.7476 345.632 69.6451 344.013 73.4146C342.035 77.902 341.855 81.133 344.193 84.9024C346.71 88.6719 348.329 88.6719 345.991 92.2619C343.294 96.0313 339.697 99.8008 335.741 101.955C329.267 105.724 321.714 108.058 314.341 105.545C310.385 104.109 307.148 101.596 303.731 99.0828C303.551 99.0828 303.552 99.2623 303.552 99.2623C311.824 105.186 318.477 108.596 328.907 105.365C337.719 102.493 342.395 96.9288 348.149 90.1079V89.9284C344.013 84.364 340.956 81.133 344.013 73.9531C344.912 71.7991 347.43 70.1836 348.149 67.8501C348.868 65.5166 348.149 61.9267 348.149 59.5932C348.149 59.5932 348.149 59.5932 348.149 59.4137C346.71 58.6957 345.272 57.7982 344.013 57.0802C343.833 56.9007 343.653 57.0802 343.833 57.2597Z" fill="#495057"/>
<path d="M292.5 234.245H230.361C224.966 234.245 219.931 236.22 215.795 239.63L207.702 246.63C205.005 248.964 202.847 251.836 201.588 255.246L178.031 314.84L164.543 351.637L158.609 360.073L187.202 367.074L211.839 370.664L215.795 346.073L230.721 297.249L233.058 292.582C235.756 287.197 241.69 284.325 247.625 285.582L263.09 288.813" fill="white"/>
<path d="M281.253 234.245C273.34 234.604 265.248 234.963 257.335 235.143L233.418 236.04H230.361C229.462 236.04 228.563 236.04 227.664 236.22C225.865 236.399 224.067 236.938 222.449 237.656C220.83 238.374 219.212 239.271 217.773 240.528L213.277 244.297L208.782 248.246C207.343 249.502 206.264 250.938 205.185 252.374C204.106 253.99 203.566 255.426 202.847 257.4L200.689 262.965L183.066 307.48C180.009 314.84 177.311 322.379 174.614 329.918L166.342 352.355V352.534L166.162 352.714L160.228 361.15L159.149 358.458L187.742 365.458H187.562L212.198 369.048L210.22 370.484L214.176 345.893V345.713V345.534L221.729 321.122L225.506 308.916C226.585 304.788 228.203 300.839 229.642 296.71V296.531L231.979 292.402C232.699 290.967 233.778 289.531 235.037 288.274C237.554 285.941 240.971 284.684 244.388 284.505C246.006 284.505 247.804 284.864 249.243 285.223L253.919 286.3L263.27 288.633L253.739 287.197L249.063 286.479C247.445 286.12 246.006 285.941 244.388 286.12C241.331 286.479 238.633 287.736 236.475 289.89C235.396 290.967 234.677 292.223 234.137 293.479L231.979 297.967L232.159 297.787C231.08 301.916 230.001 306.044 228.743 310.173L224.966 322.379L217.413 346.79V346.611L213.457 371.202L213.097 372.997L211.299 372.818L186.663 369.228L158.07 362.227L155.552 361.689L156.991 359.535L162.925 351.098L162.745 351.457L171.017 329.02C173.715 321.481 176.412 313.942 179.469 306.583L197.093 262.067L199.251 256.503C199.97 254.708 200.869 252.554 201.948 250.759C203.027 248.964 204.466 247.348 206.084 245.912L210.58 241.964C212.198 240.707 213.457 239.451 215.255 238.015C216.874 236.758 218.852 235.502 220.83 234.784C222.808 233.886 224.966 233.348 227.124 232.989C228.203 232.809 229.282 232.809 230.361 232.809H233.418L257.335 233.707C265.248 233.527 273.16 233.886 281.253 234.245Z" fill="#495057"/>
<path d="M385.194 243.759L381.957 253.631C379.08 262.606 371.167 278.043 361.816 279.12L345.272 281.274H317.578L305.35 286.659C303.192 287.556 301.933 289.89 302.113 292.223L308.767 352.714L309.126 367.253H259.493L255.897 313.404L257.335 288.992C258.055 278.043 260.752 267.273 265.608 257.4L270.823 246.81L300.315 234.245" fill="white"/>
<path d="M385.194 243.758L383.216 251.118C382.496 253.631 381.777 255.964 380.878 258.477C379.08 263.324 376.742 267.811 373.865 272.119C372.426 274.273 370.628 276.248 368.47 277.863C367.93 278.402 367.391 278.761 366.851 279.12C366.312 279.479 365.593 279.838 364.873 280.017C363.614 280.556 361.996 280.915 360.737 281.094C355.702 281.992 350.667 282.351 345.631 283.069H345.452H345.272H317.578L318.297 282.889L309.126 287.018L306.788 288.095L306.249 288.274C306.069 288.274 306.069 288.454 305.889 288.454C305.709 288.633 305.35 288.813 305.17 288.992C304.271 289.71 303.911 290.966 304.091 292.043L306.249 312.147L310.745 352.355L311.104 366.894V368.689H309.306H259.673H258.055L257.875 367.074L254.278 313.224V313.045V312.865L255.357 295.633L255.897 287.018C256.077 284.146 256.436 281.094 256.976 278.222C258.055 272.478 259.673 266.734 262.011 261.349C263.27 258.657 264.529 255.964 265.967 253.451L270.103 245.733L270.283 245.374L270.643 245.194C280.713 241.425 290.604 237.476 300.674 233.707C290.963 238.373 281.253 242.861 271.722 247.348L272.261 246.81L268.665 254.708C267.406 257.4 266.327 259.913 265.248 262.606C263.09 267.811 261.471 273.196 260.393 278.761C259.853 281.453 259.493 284.325 259.314 287.197L258.774 295.813L257.695 313.045V312.865L261.292 366.715L259.493 365.099H309.126L307.328 366.894L306.968 352.355V352.534L302.473 312.327L300.315 292.223C299.955 290.069 300.854 287.736 302.473 286.12C302.832 285.761 303.372 285.402 303.731 285.043C303.911 284.864 304.271 284.864 304.451 284.684L304.99 284.505L307.328 283.428L316.499 279.299L316.859 279.12H317.218H345.272H345.092C350.127 278.581 355.162 277.684 360.198 277.325C361.636 277.145 362.535 277.145 363.614 276.786C364.154 276.607 364.693 276.427 365.233 276.068C365.772 275.889 366.312 275.53 366.671 275.171C368.65 273.914 370.448 272.119 371.887 270.324C374.944 266.555 377.641 262.067 379.619 257.58C380.698 255.246 381.597 252.913 382.496 250.579L385.194 243.758Z" fill="#495057"/>
<path d="M271.646 219L263 231.383L275.608 240.028L294.16 236.523L304.427 241.196L365.846 243.766L388 244V219" fill="white"/>
<path d="M271.646 219L263 231.383L275.608 240.028L294.16 236.523L304.427 241.196L365.846 243.766L388 244V219" stroke="#495057" stroke-width="2" stroke-miterlimit="10"/>
<path d="M273.16 208.397H205.005L211.479 197.628L224.427 191.345L240.252 194.038L256.256 190.807L262.191 155.804L276.217 122.597L284.31 108.417L303.551 101.596L314.881 107.878L327.469 107.34L341.316 99.2625L351.566 88.8516L374.044 99.9805L389.69 116.674L395.804 153.291L391.668 192.422L389.51 206.782L273.16 208.397Z" fill="white"/>
<path d="M273.16 208.397H205.005L211.479 197.628L224.427 191.345L240.252 194.038L256.256 190.807L262.191 155.804L276.217 122.597L284.31 108.417L303.551 101.596L314.881 107.878L327.469 107.34L341.316 99.2625L351.566 88.8516L374.044 99.9805L389.69 116.674L395.804 153.291L391.668 192.422L389.51 206.782L273.16 208.397Z" stroke="#495057" stroke-width="2" stroke-miterlimit="10"/>
<path d="M282.691 373.536H267.046L253.919 391.486L232.519 393.999L227.124 403.512L229.462 410.513H304.091L307.688 405.487L303.551 377.485L294.56 386.999L282.691 373.536Z" fill="white" stroke="#495057" stroke-width="2" stroke-miterlimit="10"/>
<path d="M357.5 137.496L365.952 155.625L362.895 190.807L331.965 189.909L321.534 194.038L309.306 184.883L299.236 182.55L291.683 186.678L284.13 190.627L275.498 203.731L316.859 206.782H389.51L398.501 165.677L388.071 115.059" fill="white"/>
<path d="M357.5 137.496C360.557 143.419 363.794 149.343 366.851 155.087L367.031 155.266V155.446L366.132 173.037C365.952 175.909 365.952 178.96 365.592 181.832C365.413 184.704 365.053 187.755 364.873 190.627L364.693 192.243H363.075L332.144 191.525L332.864 191.345L322.434 195.474L321.534 195.833L320.635 195.294L308.407 185.96L309.126 186.319L299.056 183.986L300.315 183.806L292.762 187.935L285.209 191.884L285.928 191.345L276.937 204.628L275.498 201.936L316.859 204.987H316.679H389.33L387.532 206.423L396.523 165.318V166.036C395.444 161.908 394.905 157.6 394.185 153.292L392.027 140.547C390.589 132.111 389.15 123.495 387.711 115.059C389.869 123.495 392.027 131.752 394.005 140.188L397.063 152.753C398.142 156.882 399.221 161.19 399.94 165.318V165.677V166.036L390.948 207.141L390.589 208.577H389.15H316.499L275.139 205.526L272.081 205.346L273.7 202.833L282.332 189.73L282.512 189.371L282.871 189.191L290.424 185.242L297.977 181.114L298.516 180.755L299.236 180.934L309.306 183.268H309.666L310.025 183.447L322.254 192.781L320.455 192.602L330.885 188.473L331.245 188.294H331.605L362.535 189.012L360.737 190.627C361.097 187.755 361.097 184.704 361.456 181.832C361.816 178.96 362.176 175.909 362.535 173.037L364.693 155.446V155.805C362.535 149.881 360.018 143.778 357.5 137.496Z" fill="#495057"/>
<path d="M112.573 116.853L126.779 207.141H212.018L211.479 197.627L200.33 117.392C200.15 115.776 198.711 114.52 197.093 114.52H114.371C113.292 114.699 112.393 115.597 112.573 116.853Z" fill="#495057"/>
<path d="M112.573 116.853C113.832 124.392 115.27 131.931 116.889 139.291C118.507 146.829 120.126 154.189 121.564 161.728L128.578 206.961L126.779 205.525H212.018L210.22 207.5L209.681 197.986V198.166L203.746 155.804L200.869 134.624L199.43 124.033L198.711 118.648L198.531 117.93C198.531 117.751 198.531 117.751 198.531 117.571C198.531 117.392 198.351 117.212 198.172 117.033C197.812 116.674 197.452 116.494 197.093 116.494C182.706 116.494 168.5 116.494 154.113 116.494L143.324 115.956L132.534 115.417C128.937 115.238 125.341 115.058 121.744 114.879L116.349 114.699C115.45 114.699 114.551 114.52 113.652 114.699C112.933 114.879 112.393 115.956 112.573 116.853ZM112.573 116.853C112.393 115.956 112.933 115.058 113.832 114.699C114.731 114.52 115.63 114.699 116.529 114.52L121.924 114.34C125.521 114.161 129.117 114.161 132.714 113.802L143.504 113.263L154.293 112.725C168.68 112.545 182.886 112.725 197.272 112.725C198.531 112.725 199.97 113.263 201.049 114.34C201.588 114.879 201.948 115.417 202.128 116.135C202.308 116.494 202.308 116.853 202.308 117.212L202.487 117.93L203.207 123.315L204.645 133.906L207.523 155.086L213.457 197.448L213.997 206.961L214.176 208.936H212.198H126.779H125.161L124.981 207.5L117.788 162.266C116.889 154.727 115.99 147.188 115.27 139.47C114.731 131.931 113.832 124.392 112.573 116.853Z" fill="#495057"/>
<path d="M112.023 116.853L126.23 207.141H211.468L210.929 197.627L199.78 117.392C199.6 115.776 198.161 114.52 196.543 114.52H113.821C112.742 114.699 111.843 115.597 112.023 116.853Z" fill="white"/>
<path d="M107.178 116.853C108.437 124.392 109.875 131.931 111.494 139.291C113.112 146.829 114.731 154.189 116.169 161.728L123.183 206.961L121.385 205.525H206.624L204.825 207.5L204.286 197.986V198.166L198.351 155.804L195.474 134.624L194.035 124.033L193.316 118.648L193.136 117.93C193.136 117.751 193.136 117.751 193.136 117.571C193.136 117.392 192.957 117.212 192.777 117.033C192.417 116.674 192.057 116.494 191.698 116.494C177.311 116.494 163.105 116.494 148.719 116.494L137.929 115.956L127.139 115.417C123.542 115.238 119.946 115.058 116.349 114.879L110.954 114.699C110.055 114.699 109.156 114.52 108.257 114.699C107.538 114.879 106.998 115.956 107.178 116.853ZM107.178 116.853C106.998 115.956 107.538 115.058 108.437 114.699C109.336 114.52 110.235 114.699 111.134 114.52L116.529 114.34C120.126 114.161 123.722 114.161 127.319 113.802L138.109 113.263L148.898 112.725C163.285 112.545 177.491 112.725 191.878 112.725C193.136 112.725 194.575 113.263 195.654 114.34C196.193 114.879 196.553 115.417 196.733 116.135C196.913 116.494 196.913 116.853 196.913 117.212L197.093 117.93L197.812 123.315L199.251 133.906L202.128 155.086L208.062 197.448L208.602 206.961L208.781 208.936H206.803H121.385H119.766L119.586 207.5L112.393 162.266C111.494 154.727 110.595 147.188 109.875 139.47C109.336 131.931 108.437 124.392 107.178 116.853Z" fill="#495057"/>
<path d="M297.797 202.833L303.551 200.141L312.543 205.705" fill="white"/>
<path d="M297.797 202.833L303.551 200.141L312.543 205.705" stroke="#495057" stroke-width="2" stroke-miterlimit="10"/>
<path d="M319.736 189.909L324.771 205.526L336.82 206.782L330.885 189.012L325.491 188.114L319.736 189.909Z" fill="white" stroke="#495057" stroke-width="2" stroke-miterlimit="10"/>
<path d="M235.216 192.243L240.252 199.961L252.3 200.679L246.366 191.704L240.971 191.345L235.216 192.243Z" fill="white" stroke="#495057" stroke-width="2" stroke-miterlimit="10"/>
<path d="M320.096 145.573L331.605 131.572L339.697 115.058L352.285 99.9805H374.044L365.593 94.9545C363.075 93.5185 361.097 91.3646 359.838 88.6721C358.579 85.9796 356.062 84.1846 353.184 83.8256L341.855 82.3896L345.092 95.493L329.986 110.391L309.306 184.883" fill="white"/>
<path d="M320.095 145.573C323.512 140.547 327.109 135.701 330.525 130.854L330.346 131.034L333.942 122.597C334.482 121.161 335.201 119.725 335.92 118.469L337.898 114.34L338.078 114.161L338.258 113.981L350.846 98.9035L351.386 98.1856H352.285H374.044L373.145 101.596L364.873 96.7496C363.434 95.8521 361.816 94.7751 360.737 93.3391C360.197 92.6211 359.658 91.9031 359.118 91.1851C358.579 90.4671 358.219 89.5696 357.86 89.0311C357.14 87.9541 356.241 87.0567 355.162 86.5182C354.623 86.1592 354.083 85.9797 353.364 85.9797C352.824 85.8002 351.925 85.8002 351.026 85.6207L341.495 84.3642L343.473 82.2102L346.71 95.3136L346.89 96.3906L346.171 97.1086L331.065 112.007L331.604 111.289L321.354 148.445L318.837 157.779L315.779 166.933C313.622 173.036 311.643 179.139 309.485 185.242C310.744 178.96 312.003 172.677 313.442 166.395L315.42 156.881L317.937 147.548L328.188 110.391L328.368 109.853L328.727 109.494L343.833 94.5956L343.293 96.2111L340.056 83.1077L339.517 80.5947L342.035 80.9537L351.565 82.2102C352.465 82.3897 353.004 82.3897 354.083 82.5692C354.982 82.7487 355.881 83.1077 356.781 83.4667C358.579 84.3642 360.017 85.8002 360.917 87.4157C361.456 88.3131 361.636 88.8516 361.996 89.5696C362.355 90.1081 362.715 90.6466 363.254 91.1851C364.154 92.2621 365.233 93.1596 366.491 93.8776L374.763 98.724L380.338 102.135H374.044H352.285L353.723 101.417L341.135 116.494L341.315 116.135L339.337 120.264C338.618 121.7 338.078 122.956 337.179 124.392L332.683 132.47L332.504 132.649C328.547 136.778 324.411 141.086 320.095 145.573Z" fill="#495057"/>
<path d="M303.5 101.5L295.459 106.802V138.932L300.674 145.573" fill="white"/>
<path d="M303.5 101.5L295.459 106.802V138.932L300.674 145.573" stroke="#495057" stroke-width="2" stroke-miterlimit="10"/>
<path d="M299.236 182.55L302.832 121.7L309.486 103.211" fill="white"/>
<path d="M299.236 182.55L302.832 121.7L309.486 103.211" stroke="#495057" stroke-width="2" stroke-miterlimit="10"/>
<path d="M297.797 199.423H212.019V207.141H297.797V199.423Z" fill="white" stroke="#495057" stroke-width="2" stroke-miterlimit="10"/>
<path d="M300 225L302 241" stroke="#495057" stroke-width="2" stroke-miterlimit="10"/>
<path d="M295 225L286 239" stroke="#495057" stroke-width="2" stroke-miterlimit="10"/>
<path d="M436.985 39.4896H412.708L416.304 19.3858V15.2573H440.581V20.1038L436.985 39.4896Z" fill="white"/>
<path d="M436.985 39.6693C435.186 39.8488 433.208 40.2078 431.23 40.3873L425.296 41.1053L419.002 41.6438C416.844 41.8233 414.686 42.0028 412.528 42.0028L409.651 42.1823L410.01 38.9513C410.37 35.5408 410.909 32.1304 411.449 28.8994C411.809 25.4889 412.528 22.258 413.067 18.8475V19.386V15.437V12.2061H416.304H422.418C424.397 12.2061 426.375 12.2061 428.533 12.3856C432.489 12.5651 436.625 12.5651 440.581 12.924L443.279 13.1035L443.099 15.437L442.739 20.2835V20.6425C441.84 24.0529 440.941 27.4634 439.862 30.6944L438.423 35.3613C438.064 36.7973 437.524 38.2333 436.985 39.6693ZM436.805 39.3103L440.222 20.104V15.2575L440.401 15.437H416.304L416.664 15.078V19.027L413.067 39.1308L412.888 38.7718L436.805 39.3103Z" fill="#495057"/>
<path d="M467.915 48.6441H443.818L447.415 28.5403V24.5913H471.512V29.2583L467.915 48.6441Z" fill="white"/>
<path d="M468.095 48.8236C466.297 49.0031 464.319 49.3621 462.34 49.5416L456.406 50.2596L450.112 50.7981C447.954 50.9776 445.796 51.1571 443.638 51.1571L440.761 51.3366L441.121 48.1056C441.48 44.6951 442.02 41.2847 442.559 38.0537C442.919 34.6432 443.638 31.4123 444.178 28.0018V28.5403V24.5913V21.3604H447.415H453.529C455.507 21.3604 457.485 21.3604 459.643 21.5399C463.599 21.7193 467.735 21.7193 471.692 22.0783L474.389 22.2578L474.209 24.5913L473.85 29.4378V29.7968C472.95 33.2072 472.051 36.6177 470.972 39.8487L469.534 44.5156C468.994 45.9516 468.634 47.3876 468.095 48.8236ZM467.915 48.4646L471.332 29.2583V24.4118L471.512 24.5913H447.415L447.774 24.2323V28.1813L444.178 48.2851L443.998 47.9261L467.915 48.4646Z" fill="#495057"/>
<path d="M503.521 48.6441H479.244L482.841 28.5403V24.5913H507.118V29.2583L503.521 48.6441Z" fill="white"/>
<path d="M503.521 48.8236C501.723 49.0031 499.745 49.3621 497.767 49.5416L491.832 50.2596L485.538 50.7981C483.381 50.9776 481.223 51.1571 479.065 51.1571L476.187 51.3366L476.547 48.1056C476.907 44.6951 477.446 41.2847 477.986 38.0537C478.345 34.6432 479.065 31.4123 479.604 28.0018V28.5403V24.5913V21.3604H482.841H488.955C490.933 21.3604 492.911 21.3604 495.069 21.5399C499.026 21.7193 503.162 21.7193 507.118 22.0783L509.815 22.2578L509.636 24.5913L509.276 29.4378V29.7968C508.377 33.2072 507.478 36.6177 506.399 39.8487L504.96 44.5156C504.6 45.9516 504.061 47.3876 503.521 48.8236ZM503.342 48.4646L506.758 29.2583V24.4118L506.938 24.5913H482.841L483.201 24.2323V28.1813L479.604 48.2851L479.424 47.9261L503.342 48.4646Z" fill="#495057"/>
<path d="M80.3837 158.497H33.0886L38.8432 212.167H74.6291L80.3837 158.497Z" fill="white" stroke="#495057" stroke-width="2.1318" stroke-miterlimit="10"/>
<path d="M272.621 201.217C271.901 194.396 275.678 187.755 278.735 181.652C281.792 175.549 284.31 168.01 281.253 161.728" fill="white"/>
<path d="M281.253 161.548C281.612 161.369 283.411 163.343 283.77 167.472C284.31 171.6 282.871 177.165 280.174 182.37C277.656 187.576 275.138 192.063 274.239 195.474C273.16 198.884 273.16 201.217 272.441 201.217C272.081 201.217 271.002 198.884 271.542 194.935C272.081 190.986 274.239 185.96 276.757 180.934C279.275 175.908 280.713 171.241 281.073 167.651C281.433 164.061 280.713 161.907 281.253 161.548Z" fill="#495057"/>
<path d="M334.842 206.602C332.864 203.012 331.605 199.243 331.065 195.115C330.885 194.038 330.885 192.781 331.425 191.704C332.144 190.268 334.122 189.73 335.741 189.55C342.574 188.832 349.408 191.166 356.062 192.422C362.895 193.679 370.448 193.858 375.663 189.371" fill="white"/>
<path d="M375.663 189.371C375.843 189.55 375.303 190.268 374.044 191.345C372.786 192.422 370.628 193.499 367.571 194.217C364.693 194.935 361.097 194.935 357.32 194.397C353.544 193.858 349.588 192.781 345.452 192.063C343.473 191.704 341.495 191.345 339.517 191.345C337.719 191.166 335.741 191.345 334.302 191.704C333.583 191.884 333.043 192.243 332.864 192.422C332.504 192.781 332.504 193.14 332.324 193.858C332.324 194.397 332.324 195.294 332.504 196.012C332.504 196.73 332.684 197.448 332.864 198.166C333.763 203.551 335.381 206.602 334.842 206.961C334.482 207.141 331.964 204.448 330.346 198.884C330.166 198.166 329.986 197.448 329.806 196.73C329.627 196.012 329.447 195.115 329.447 194.038C329.447 193.14 329.627 191.704 330.526 190.627C331.425 189.55 332.504 189.012 333.583 188.653C334.662 188.294 335.741 188.114 336.82 188.114C337.899 187.935 338.978 187.935 340.057 188.114C342.215 188.114 344.373 188.473 346.531 188.832C350.846 189.73 354.803 190.807 358.219 191.525C361.816 192.243 364.873 192.422 367.571 192.063C372.606 191.166 375.303 189.012 375.663 189.371Z" fill="#495057"/>
<path d="M379.439 259.016C372.965 273.734 368.47 282.709 340.596 283.248C324.591 283.607 312.723 278.222 295.459 289.71" fill="white"/>
<path d="M295.459 289.71C295.279 289.531 296.358 288.633 298.336 287.197C300.494 285.941 303.551 283.966 307.867 282.71C312.183 281.274 317.578 280.735 323.333 281.094C329.267 281.274 335.381 282.171 342.035 281.812C348.689 281.633 354.803 280.915 360.198 279.12C362.715 278.222 365.233 276.966 367.211 275.53C369.189 274.094 370.807 272.478 372.066 270.683C374.584 267.273 376.202 264.221 377.461 262.067C378.54 259.913 379.259 258.836 379.439 258.836C379.619 258.836 379.259 260.272 378.36 262.426C377.461 264.76 376.202 267.991 373.685 271.76C372.426 273.555 370.628 275.53 368.65 277.145C366.492 278.761 363.974 280.197 361.097 281.274C355.522 283.248 348.868 284.146 342.215 284.325C335.381 284.684 329.087 283.787 323.333 283.428C317.578 283.069 312.543 283.428 308.407 284.505C300.135 286.838 295.639 290.249 295.459 289.71Z" fill="#495057"/>
<path d="M256.077 288.094C247.265 287.017 238.633 284.504 230.541 280.734Z" fill="white"/>
<path d="M230.541 280.556C230.901 279.838 236.475 281.992 243.309 283.966C250.322 285.941 256.077 287.197 255.897 287.915C255.897 288.633 249.603 288.633 242.41 286.479C235.396 284.684 230.181 281.274 230.541 280.556Z" fill="#495057"/>
<path d="M223.527 408.718C223.527 399.922 226.585 394.358 231.26 393.101C237.015 391.665 243.309 391.486 248.164 393.64C251.94 395.255 254.098 399.563 257.335 402.076C260.572 404.589 265.787 405.846 268.844 402.974" fill="white"/>
<path d="M269.024 402.974C269.204 402.974 268.665 403.871 267.226 404.589C265.787 405.307 263.09 405.487 260.392 404.589C258.954 404.051 257.515 403.333 256.256 402.256C254.998 401.179 253.739 399.743 252.48 398.486C251.221 397.23 249.962 395.973 248.524 395.076C246.905 394.358 245.107 393.819 243.129 393.64C239.173 393.101 235.216 393.64 231.8 394.358C228.743 395.076 226.944 397.768 226.045 400.281C225.146 402.615 224.786 404.948 224.427 406.384C224.247 407.82 224.067 408.718 223.887 408.718C223.707 408.718 223.527 407.82 223.348 406.384C223.348 404.769 223.348 402.435 224.247 399.743C224.606 398.307 225.326 396.871 226.405 395.435C227.484 393.999 229.102 392.742 231.26 392.204C234.857 391.127 238.993 390.588 243.489 391.127C245.646 391.306 247.804 391.845 249.783 392.922C251.761 393.999 253.199 395.614 254.458 397.05C255.717 398.486 256.616 399.743 257.875 400.82C258.954 401.897 260.213 402.615 261.292 403.153C263.629 404.23 265.787 404.23 267.046 404.051C268.125 403.333 268.844 402.794 269.024 402.974Z" fill="#495057"/>
<path d="M251.221 392.563C257.695 387.716 259.134 377.844 265.967 373.536C271.182 370.125 278.915 371.382 282.871 376.228C284.489 378.203 285.568 380.895 287.367 382.69C289.165 384.665 292.402 385.742 294.56 383.947C297.617 381.434 295.999 375.151 299.595 373.895C302.293 372.997 304.63 376.228 305.529 378.921C308.407 388.075 307.148 398.486 302.293 406.743" fill="white"/>
<path d="M302.113 406.922C301.933 406.743 302.652 405.486 303.551 402.973C304.451 400.461 305.53 396.691 305.709 392.024C305.889 389.691 305.709 386.998 305.35 384.306C305.17 382.87 304.81 381.613 304.451 380.177C304.091 378.741 303.372 377.485 302.472 376.587C302.113 376.049 301.573 375.69 301.034 375.51C300.494 375.331 300.135 375.331 299.595 375.69C298.696 376.049 298.336 377.485 297.977 379.28C297.617 380.895 297.437 383.049 295.819 384.844C295.099 385.742 293.841 386.46 292.582 386.46C291.323 386.639 290.244 386.28 289.165 385.921C288.086 385.562 287.187 384.844 286.468 384.126C285.748 383.408 285.209 382.511 284.669 381.793C283.59 380.177 282.871 378.562 281.792 377.305C279.814 374.792 276.937 373.536 274.059 373.177C271.182 372.818 268.305 373.536 266.147 374.972C263.989 376.408 262.371 378.562 261.112 380.536C259.853 382.511 258.774 384.485 257.695 386.101C256.616 387.716 255.537 389.152 254.638 390.229C252.66 392.383 251.221 392.922 251.221 392.922C251.041 392.742 252.3 391.845 253.739 389.691C254.458 388.614 255.357 387.178 256.256 385.562C257.156 383.947 258.055 381.972 259.313 379.818C260.572 377.664 262.191 375.331 264.708 373.536C267.226 371.561 270.643 370.664 274.239 371.023C277.656 371.382 281.432 372.997 283.77 376.049C285.029 377.485 285.748 379.28 286.827 380.536C287.726 381.972 288.805 383.049 290.244 383.767C291.683 384.306 293.121 384.306 293.841 383.408C294.74 382.511 295.099 380.716 295.459 379.1C295.639 378.203 295.819 377.305 296.358 376.408C296.718 375.51 297.437 374.433 298.516 373.895C299.595 373.356 300.854 373.177 301.933 373.715C303.012 374.074 303.731 374.792 304.451 375.51C305.709 376.946 306.429 378.562 306.788 380.177C307.148 381.613 307.508 383.229 307.687 384.665C308.047 387.537 308.047 390.409 307.867 392.922C307.328 397.948 305.889 401.717 304.63 404.23C303.372 405.845 302.293 407.102 302.113 406.922Z" fill="#495057"/>
<path d="M125.701 408.717C125.701 399.922 128.758 394.357 133.433 393.101C139.188 391.665 145.482 391.485 150.337 393.639C154.114 395.255 156.271 399.563 159.508 402.076" fill="white"/>
<path d="M159.688 401.896C159.508 402.076 158.969 401.717 157.89 400.999C156.811 400.281 155.552 398.845 154.113 397.409C153.394 396.691 152.495 395.973 151.596 395.255C151.056 394.896 150.517 394.717 149.977 394.537C149.438 394.358 148.719 394.178 148.179 393.999C145.482 393.281 142.425 393.281 139.368 393.46C137.749 393.64 136.131 393.819 134.692 394.178C133.253 394.537 132.174 394.896 131.275 395.794C129.297 397.409 128.398 399.742 127.679 401.717C126.42 405.666 126.42 408.538 126.06 408.538C125.7 408.538 125.161 405.845 125.88 401.358C126.42 399.204 127.139 396.332 129.657 393.999C130.736 392.922 132.534 392.024 134.152 391.665C135.771 391.306 137.389 390.947 139.188 390.768C142.604 390.409 146.021 390.588 149.078 391.486C149.798 391.665 150.517 392.024 151.236 392.204C151.956 392.563 152.675 392.922 153.214 393.281C154.293 394.178 155.192 395.076 155.912 395.973C157.35 397.768 158.25 399.204 159.149 400.101C159.329 401.358 159.688 401.896 159.688 401.896Z" fill="#495057"/>
<path d="M153.214 392.563C159.688 387.716 161.127 377.844 167.96 373.536C173.175 370.125 180.908 371.382 184.864 376.228C186.483 378.203 187.562 380.895 189.36 382.69C191.158 384.665 194.395 385.742 196.553 383.947C199.61 381.434 197.992 375.151 201.588 373.895C204.286 372.997 206.624 376.228 207.523 378.921C210.4 388.075 209.141 398.486 204.286 406.743" fill="white"/>
<path d="M204.286 406.922C204.106 406.743 204.825 405.486 205.724 402.973C206.623 400.461 207.702 396.691 207.882 392.024C208.062 389.691 207.882 386.998 207.522 384.306C207.343 382.87 206.983 381.613 206.623 380.177C206.264 378.741 205.544 377.485 204.645 376.587C204.286 376.049 203.746 375.69 203.207 375.51C202.667 375.331 202.307 375.331 201.768 375.69C200.869 376.049 200.509 377.485 200.149 379.28C199.79 380.895 199.61 383.049 197.991 384.844C197.272 385.742 196.013 386.46 194.755 386.46C193.496 386.639 192.417 386.28 191.338 385.921C190.259 385.562 189.36 384.844 188.64 384.126C187.921 383.408 187.382 382.511 186.842 381.793C185.763 380.177 185.044 378.562 183.965 377.305C181.987 374.792 179.109 373.536 176.232 373.177C173.355 372.818 170.478 373.536 168.32 374.972C166.162 376.408 164.543 378.562 163.284 380.536C162.026 382.511 160.947 384.485 159.868 386.101C158.789 387.716 157.71 389.152 156.811 390.229C154.833 392.383 153.394 392.922 153.394 392.922C153.214 392.742 154.473 391.845 155.911 389.691C156.631 388.614 157.53 387.178 158.429 385.562C159.328 383.947 160.227 381.972 161.486 379.818C162.745 377.664 164.363 375.331 166.881 373.536C169.399 371.561 172.815 370.664 176.412 371.023C179.829 371.382 183.605 372.997 185.943 376.049C187.202 377.485 187.921 379.28 189 380.536C189.899 381.972 190.978 383.049 192.417 383.767C193.855 384.306 195.294 384.306 196.013 383.408C196.913 382.511 197.272 380.716 197.632 379.1C197.812 378.203 197.992 377.305 198.531 376.408C198.891 375.51 199.61 374.433 200.689 373.895C201.768 373.356 203.027 373.177 204.106 373.715C205.185 374.074 205.904 374.792 206.623 375.51C207.882 376.946 208.601 378.562 208.961 380.177C209.321 381.613 209.68 383.229 209.86 384.665C210.22 387.537 210.22 390.409 210.04 392.922C209.501 397.948 208.062 401.717 206.803 404.23C205.364 405.845 204.465 407.102 204.286 406.922Z" fill="#495057"/>
<path d="M285.209 383.229C283.411 381.613 280.354 381.972 278.375 383.229C276.217 384.485 274.779 386.46 273.34 388.434C270.643 392.204 268.125 395.794 265.428 399.563" fill="white"/>
<path d="M265.428 399.563C264.888 399.204 267.945 393.64 272.621 387.357C273.7 385.742 274.959 384.126 276.577 383.049C278.016 381.972 279.814 381.254 281.253 381.254C282.691 381.254 283.95 381.613 284.49 382.152C285.209 382.69 285.389 383.049 285.209 383.229C285.029 383.588 283.59 382.69 281.433 383.049C280.354 383.229 279.095 383.767 278.016 384.844C276.937 385.742 275.858 387.178 274.779 388.793C270.283 395.255 265.967 399.922 265.428 399.563Z" fill="#495057"/>
<path d="M490 208H16V225H490V208Z" fill="white"/>
<path d="M496.148 224.732L377.102 226.168L256.616 226.347L15.6451 226.527H13.8468V224.732V207.141V205.346H15.6451H255.897H376.023C386.093 205.346 395.984 205.525 406.054 205.525L436.085 205.884L496.148 206.782H496.328V206.961L496.148 224.732ZM496.148 224.732L495.968 207.141L496.148 207.32L436.085 208.218L406.054 208.577C395.984 208.756 386.093 208.936 376.023 208.756H255.897H15.6451L17.4434 206.961V224.552L15.6451 222.757L255.177 222.937L374.944 223.116L496.148 224.732Z" fill="#495057"/>
<path d="M62.2208 139.419C63.8393 135.65 68.5148 134.034 72.6509 134.214C76.787 134.393 80.7432 135.47 84.8793 135.47C89.0153 135.47 93.511 133.855 95.1295 130.085C96.3883 132.778 95.1295 135.829 93.3312 138.163C89.1952 143.907 82.5415 147.676 75.5281 147.856C68.5148 148.215 61.3217 145.163 56.8259 139.778" fill="white"/>
<path d="M56.8259 143.778C57.0057 143.599 57.9049 144.496 59.7032 145.573C61.5014 146.83 64.1989 148.445 67.7955 149.343C71.392 150.42 76.0676 150.599 80.5633 148.984C85.059 147.548 89.9144 144.137 92.6119 139.47C92.6119 139.291 92.7917 139.111 92.7917 138.932C92.7917 138.752 92.9715 138.573 92.9715 138.573H92.7917L92.2522 138.932L91.7127 139.65C90.4539 140.188 89.1951 140.547 87.9363 140.727C85.4187 141.086 83.0809 140.906 80.923 140.547C76.7869 139.829 73.1903 139.111 70.4929 139.291C67.6156 139.47 65.4577 140.547 64.3787 141.624C63.1199 142.522 62.7602 143.419 62.4006 143.24C62.2208 143.24 62.2208 142.163 63.4796 140.727C64.5585 139.291 66.8963 137.675 70.1332 136.957C73.3702 136.239 77.3264 136.957 81.2826 137.316C83.2608 137.496 85.4187 137.675 87.3968 137.316C88.4758 137.137 89.3749 136.778 90.2741 136.419L90.9934 136.06L91.3531 135.88C91.5329 135.88 91.5329 135.701 91.5329 135.701L91.8925 135.342L92.6119 134.624C92.7917 134.624 92.7917 134.265 92.9715 134.085L93.3312 133.367L93.6908 132.649C93.8707 132.47 93.8707 132.29 94.2303 131.752L95.4891 129.418C96.0286 131.034 96.3883 131.393 96.3883 131.393L96.9278 132.649C97.1076 133.188 97.2874 133.547 97.4672 134.085C97.6471 135.162 97.8269 136.239 97.6471 137.675C97.4672 138.393 97.2874 139.111 96.9278 139.829C96.7479 140.188 96.7479 140.368 96.5681 140.547C96.3883 140.727 96.3883 140.906 96.2084 141.086C92.7917 147.009 87.3968 150.42 82.0019 152.035C76.6071 153.651 71.2122 153.112 67.4358 151.676C63.4796 150.24 60.7821 148.086 59.1637 146.471C57.1855 145.214 56.6461 143.958 56.8259 143.778Z" fill="#495057"/>
<path d="M43.5756 151.317C37.4615 144.496 38.0009 134.265 39.0799 125.111C40.1589 115.956 41.2379 105.904 36.0228 98.5449C46.0933 104.827 55.4444 113.264 59.9401 124.213C64.4358 135.163 62.6375 149.343 53.6461 157.061" fill="white"/>
<path d="M56.826 157.061C56.6461 156.882 58.0848 155.625 59.7032 153.112C60.6024 151.856 61.5015 150.061 62.4007 148.086C63.12 146.112 63.8393 143.599 64.1989 140.906C64.9183 135.342 64.1989 128.521 60.7822 122.059C57.5453 115.418 51.9706 109.315 45.1371 104.109C44.5976 103.75 43.8783 103.212 43.3388 102.853L42.4396 102.314L42.6195 102.673L42.9791 103.93C43.5186 105.725 43.8783 107.699 44.0581 109.494C44.4178 113.264 44.0581 116.674 43.8783 119.905C43.5186 123.136 42.9791 126.187 42.7993 129.059C42.4396 131.931 42.4396 134.444 42.4396 136.957C42.6195 141.804 43.5186 145.394 44.7774 147.727C45.8564 150.061 46.9354 151.138 46.7555 151.317C46.7555 151.317 45.4967 150.42 44.0581 148.086C42.6195 145.753 41.1808 141.804 40.8212 136.957C40.6414 134.444 40.6414 131.752 40.8212 128.88C41.001 126.008 41.3607 122.956 41.7203 119.725C41.9002 116.494 42.08 113.084 41.7203 109.674C41.5405 107.879 41.1808 106.263 40.6413 104.468L40.4615 103.93L40.2817 103.571C40.2817 103.391 40.2817 103.391 40.1019 103.212C39.7422 102.494 39.3825 101.596 39.0229 100.878C39.0229 100.699 38.8431 100.34 38.6632 100.16L38.1237 99.2627L37.0448 97.6472C36.3255 96.5702 35.786 95.6727 35.0667 94.5957C37.2246 96.0317 39.5624 97.4677 41.9002 99.0832C42.4396 99.4422 43.159 99.8012 43.6984 100.34L44.7774 101.058C45.3169 101.417 46.0362 101.955 46.5757 102.494C53.589 107.879 59.5234 114.341 62.7603 121.341C66.1771 128.341 66.7165 135.701 65.8174 141.445C65.2779 144.317 64.5586 146.83 63.4796 148.984C62.4007 151.138 61.3217 152.753 60.4225 154.01C58.4444 156.164 56.826 157.061 56.826 157.061Z" fill="#495057"/>
<path d="M63.357 149.522C68.3922 147.727 71.0897 142.162 71.809 136.957C72.5283 131.751 71.4493 126.367 71.4493 120.982C71.4493 115.597 72.3485 109.853 76.3047 106.263C59.5806 113.802 46.9926 129.777 43.2162 147.727" fill="white"/>
<path d="M46.2161 147.548C45.8565 147.548 46.0363 141.445 49.9925 132.829C51.9706 128.521 54.8479 123.495 59.1638 118.828C61.3218 116.494 63.6595 114.161 66.357 112.007C67.7956 110.93 69.0544 109.853 70.6729 108.956L71.7518 108.238C71.9317 108.058 72.1115 108.058 72.4712 107.879L73.5501 107.34C74.9888 106.622 76.4274 105.725 78.0459 105.007C81.4626 103.391 84.6995 101.776 87.9365 100.16C85.9583 102.135 84.16 104.109 82.1819 106.084C81.6424 106.622 81.4626 106.802 81.2828 107.161L80.2038 107.699L79.4845 108.597C79.3047 108.956 78.945 109.135 78.945 109.315C78.5853 110.033 78.0459 110.93 77.6862 111.648L77.3265 112.366V112.905C76.9669 114.161 76.6072 115.597 76.4274 117.033C76.0677 119.725 76.2476 122.597 76.4274 125.29C76.787 130.675 76.9669 135.88 75.5282 140.009C74.2694 144.137 71.9317 147.009 69.9535 148.266C67.9754 149.702 66.5368 149.702 66.5368 149.522C66.357 149.343 67.6158 148.804 69.0544 147.189C70.493 145.753 72.2913 143.06 73.1905 139.291C74.0896 135.521 73.73 130.854 73.1905 125.469C73.0106 122.777 72.651 119.725 73.0106 116.674C73.1905 115.059 73.5501 113.443 73.9098 111.828L74.0896 111.289L74.2694 110.93L73.5501 111.289L72.4712 112.007C71.0325 112.905 69.7737 113.982 68.5149 114.879C65.9973 116.853 63.6595 119.007 61.6814 121.161C57.5453 125.469 54.4882 130.136 52.3303 134.085C48.0144 141.983 46.9354 147.727 46.2161 147.548Z" fill="#495057"/>
<path d="M42.9791 147.574C36.8649 145.42 29.4919 147.394 24.6366 151.702C19.7812 156.19 17.2636 162.652 17.0837 169.293C16.9039 175.755 18.7022 182.396 21.7593 188.14C21.7593 184.73 21.7593 181.14 22.6584 177.729C23.5576 174.319 25.5357 171.088 28.5928 169.652C31.6499 168.037 35.4263 168.216 38.3036 166.601C41.7203 164.806 43.6984 160.857 43.8783 156.908C43.8783 152.959 42.2598 149.189 39.922 146.138" fill="white"/>
<path d="M39.922 151.317C40.1018 151.138 41.3607 152.215 42.7993 154.548C43.5186 155.805 44.2379 157.42 44.5976 159.395C44.9572 161.369 45.1371 163.882 44.2379 166.575C43.3388 169.088 41.5405 171.78 38.4834 173.216C35.4263 174.652 32.1894 174.652 29.6718 175.909C27.1542 176.986 25.3559 179.678 24.4567 182.73C23.5576 185.781 23.5576 189.371 23.5576 193.141L23.7374 201.218L20.1408 194.038C19.7812 193.32 19.4215 192.602 19.0618 191.884C15.6451 184.525 14.3863 176.447 16.0048 169.267C17.4434 162.267 21.5795 156.523 26.4348 153.651C31.1104 150.779 35.786 150.42 38.6632 150.779C41.7203 151.138 42.9791 152.215 42.9791 152.394C42.7993 152.753 41.3607 152.215 38.6632 152.215C35.9658 152.215 31.8297 152.933 27.8735 155.805C23.9172 158.497 20.5005 163.523 19.4215 169.806C18.1627 176.088 19.4215 183.268 22.4786 190.089C22.8383 190.807 23.1979 191.525 23.3777 192.064L19.961 192.961C19.961 189.192 19.961 185.243 21.04 181.473C22.1189 177.704 24.6365 174.293 28.2331 172.678C31.8297 171.242 34.8868 171.242 37.2246 170.344C39.5624 169.447 41.001 167.472 41.9001 165.498C42.7993 163.523 42.9791 161.369 42.7993 159.574C42.6195 157.779 42.08 156.164 41.7203 154.907C40.6413 152.753 39.7422 151.497 39.922 151.317Z" fill="#495057"/>
<path d="M44.238 157.831C44.238 155.138 41.3607 153.343 38.8431 153.164C36.1457 152.984 33.6281 153.882 31.1105 154.061C22.6585 154.959 14.2065 148.138 13.1276 139.881C14.746 142.573 18.7023 142.753 21.3997 141.496C24.0971 140.24 26.6147 138.086 29.492 137.009C35.6062 134.675 43.159 138.265 45.1371 144.548" fill="white"/>
<path d="M45.317 147.548C45.1372 147.548 44.7775 146.65 43.6985 145.394C42.6196 143.958 40.8213 142.163 37.944 141.265C36.5054 140.727 34.8869 140.368 33.0886 140.547C31.2903 140.727 29.6719 141.265 27.8736 142.342C26.0753 143.419 24.277 144.855 21.9392 145.753C20.6804 146.291 19.4216 146.471 17.983 146.471C17.2637 146.471 16.5443 146.291 15.825 146.112L15.4654 145.932L15.6452 146.471C15.825 146.83 16.0049 147.009 16.0049 147.368C16.5443 148.445 17.2637 149.343 17.983 150.42C19.6014 152.215 21.3997 153.651 23.3779 154.548C25.356 155.446 27.3341 155.984 29.3122 156.164C31.2903 156.164 33.0886 155.805 34.8869 155.625C36.6852 155.446 38.4835 155.266 39.9221 155.805C41.3608 156.164 42.6196 157.061 43.1591 157.779C43.8784 158.677 44.0582 159.395 44.238 160.113C44.238 160.651 44.238 161.01 44.0582 161.01C43.8784 161.01 43.8784 159.754 42.4397 158.677C41.7204 158.138 40.8213 157.6 39.5625 157.241C38.3037 157.061 36.865 157.241 35.0667 157.6C33.4483 157.959 31.4702 158.497 29.1324 158.497C26.9744 158.497 24.4568 157.959 22.2989 157.061C19.9611 155.984 17.8031 154.548 16.0049 152.394C15.1057 151.317 14.2066 150.24 13.6671 148.984C13.4873 148.625 13.3074 148.445 13.1276 148.086L12.5881 146.83C12.2284 145.573 12.0486 144.496 11.689 143.24C11.3293 141.265 10.9696 139.47 10.61 137.675L13.4873 141.804L14.7461 143.24C14.9259 143.599 15.1057 143.599 15.2855 143.599H15.825C16.1847 143.778 16.1847 143.599 16.3645 143.778C16.904 143.958 17.4435 143.958 17.8031 143.958C18.8821 143.958 19.9611 143.778 20.8602 143.419C22.8384 142.701 24.6367 141.265 26.6148 140.188C28.5929 139.111 30.9307 138.393 32.9088 138.393C35.0667 138.393 36.865 138.932 38.4835 139.47C41.7204 140.906 43.5187 143.06 44.4179 144.676C45.4968 146.471 45.4968 147.548 45.317 147.548Z" fill="#495057"/>
<path d="M63 163.959C68.0352 161.267 74.3292 164.318 75.0485 169.703C75.4082 172.037 74.6889 174.55 74.1494 177.063C73.6099 179.576 73.4301 182.089 74.3292 184.243C75.2284 186.397 77.746 187.653 80.0838 186.576C77.746 183.345 78.6451 178.499 80.2636 174.37C81.8821 170.242 84.3997 166.113 84.5795 161.805C84.9391 157.139 82.6014 152.831 78.825 151.036C75.0485 149.241 69.8335 149.779 65.8773 152.651" fill="white"/>
<path d="M68.5149 152.753C68.335 152.573 69.2342 151.676 71.3921 150.599C72.4711 150.06 73.9098 149.701 75.5282 149.342C77.1467 149.163 79.3046 149.163 81.2827 150.06C83.4407 150.958 85.4188 152.573 86.6776 154.907C87.9364 157.24 88.6557 160.112 88.2961 162.984C87.5768 168.908 83.6205 173.934 82.7214 179.498C82.5415 180.755 82.3617 181.832 82.5415 182.909C82.5415 183.447 82.7214 183.986 82.9012 184.524L83.081 184.883C83.2609 185.242 83.4407 185.421 83.6205 185.78C83.9802 186.319 84.3398 186.857 84.6995 187.396C83.8003 187.755 82.7214 188.473 81.4626 188.473C81.1029 188.473 80.7433 188.473 80.5634 188.473C80.2038 188.473 80.0239 188.473 79.8441 188.293C79.4845 188.114 78.945 188.114 78.5853 187.934C77.1467 187.216 76.0677 185.78 75.5282 184.344C74.6291 181.473 75.3484 178.96 75.708 176.626C76.2475 174.472 76.787 172.318 76.6072 170.703C76.6072 168.908 75.8879 167.472 74.8089 166.395C72.6509 164.241 69.9535 163.882 68.1552 163.882C66.3569 164.061 65.4578 164.42 65.278 164.241C65.278 164.061 65.9973 163.343 67.9754 162.984C69.7737 162.625 73.0106 162.625 75.8879 165.138C77.3265 166.395 78.4055 168.369 78.4055 170.703C78.5853 172.857 78.0458 175.19 77.6862 177.344C77.3265 179.498 76.9668 181.832 77.5063 183.806C77.866 184.704 78.4055 185.421 79.3046 185.78C79.4844 185.96 79.6643 185.96 80.0239 185.96H80.2038L80.0239 185.421C79.8441 184.704 79.6643 183.986 79.4845 183.268C79.3046 181.832 79.4844 180.396 79.6643 179.139C80.2038 175.908 81.6424 173.036 82.9012 170.344C84.16 167.651 85.239 165.138 85.5986 162.805C85.9583 160.471 85.5986 157.958 84.5197 156.163C83.4407 154.189 82.0021 152.753 80.3836 152.035C78.7651 151.317 76.9668 150.958 75.5282 151.137C74.0896 151.137 72.6509 151.496 71.572 151.855C69.5939 152.214 68.5149 152.932 68.5149 152.753Z" fill="#495057"/>
<path d="M61.8613 145.214C52.69 143.24 43.3389 149.881 39.7423 158.317C36.1458 166.754 36.8651 176.626 39.023 185.781C37.0449 182.191 40.6415 177.703 44.5977 176.447C48.554 175.19 52.8699 175.37 56.6463 173.934C62.4008 171.78 65.8176 165.677 66.8965 159.753C67.9755 153.83 66.8965 147.547 65.8176 141.624" fill="white"/>
<path d="M65.8175 141.624C65.9973 141.624 66.5368 143.24 67.0763 146.111C67.6158 148.983 68.5149 153.291 67.9755 158.856C67.6158 161.548 66.8965 164.6 65.4579 167.472C63.8394 170.344 61.5016 173.216 58.0849 174.831C54.6681 176.447 50.7119 176.447 47.1153 177.344C45.317 177.703 43.6985 178.242 42.4397 179.498C41.1809 180.575 40.102 182.191 39.9221 183.627C39.9221 184.345 39.9221 185.063 40.2818 185.601L37.944 186.499C36.1457 178.78 35.4264 171.241 36.865 164.42C37.5844 161.01 38.8432 157.958 40.4616 155.266C42.0801 152.753 44.238 150.599 46.2162 148.983C50.3522 145.752 54.6681 144.675 57.5454 144.855C60.4226 144.855 61.8613 145.573 61.8613 145.573C61.8613 145.752 60.2428 145.393 57.5454 145.752C54.8479 145.932 50.8917 147.188 47.2951 150.419C45.4968 152.035 43.6985 154.009 42.0801 156.343C40.6415 158.856 39.5625 161.728 39.023 164.779C37.7642 171.062 38.4835 178.421 40.2818 185.781L42.7994 195.832L37.944 186.499C37.4045 185.601 37.2247 184.345 37.4045 183.088C37.7642 180.575 39.2028 178.601 40.8213 177.344C42.4397 175.908 44.7775 175.19 46.5758 174.831C50.532 174.113 54.1286 174.113 57.0059 172.677C59.8832 171.421 62.0411 168.908 63.6596 166.395C65.0982 163.882 65.9973 161.189 66.357 158.676C67.0763 153.65 66.5368 149.342 66.1772 146.47C65.8175 143.24 65.6377 141.624 65.8175 141.624Z" fill="#495057"/>
<path d="M419.721 22.6169C420.8 21.1809 422.958 21.7194 424.756 22.0784C428.353 22.7964 432.309 22.2579 435.546 20.4629" fill="white"/>
<path d="M435.546 20.2833C435.726 20.6423 435.187 21.7193 433.748 22.4372C432.309 23.3347 430.152 24.0527 427.634 24.0527C426.375 24.0527 425.116 23.8732 424.217 23.5142C423.318 23.1552 422.599 22.9757 422.059 22.7962C421.52 22.6167 421.16 22.6167 420.8 22.6167C420.441 22.6167 420.081 22.6167 419.901 22.4372C419.722 22.2577 419.722 21.8987 419.901 21.3603C420.261 20.8218 420.98 20.2833 421.879 20.1038C422.779 19.9243 423.858 19.9243 424.937 20.1038C425.836 20.2833 426.735 20.2833 427.814 20.2833C431.59 20.4628 435.007 19.3858 435.546 20.2833Z" fill="#495057"/>
<path d="M489.495 31.4121C488.955 33.5661 488.416 35.8996 487.876 38.0535Z" fill="white"/>
<path d="M487.876 38.2325C486.977 38.053 486.438 36.258 486.977 34.463C487.517 32.668 488.596 31.232 489.675 31.591C490.754 31.95 491.113 33.5655 490.574 35.3605C490.034 37.1555 488.775 38.412 487.876 38.2325Z" fill="#495057"/>
<path d="M495.968 31.771C495.429 33.925 494.889 36.2585 494.35 38.4124Z" fill="white"/>
<path d="M494.35 38.5913C493.451 38.4118 492.911 36.6169 493.451 34.8219C493.81 33.0269 495.069 31.5909 495.968 31.9499C496.868 32.1294 497.407 33.9244 496.868 35.7194C496.508 37.5144 495.429 38.7708 494.35 38.5913Z" fill="#495057"/>
<path d="M484.279 42.0028C486.078 43.7978 488.775 44.8747 491.293 44.6953C493.81 44.5158 496.328 43.0798 497.766 40.9258" fill="white"/>
<path d="M497.767 40.9257C498.126 41.1052 498.126 42.1822 497.047 43.6182C496.148 44.8747 493.99 46.3107 491.473 46.4901C488.775 46.6696 486.617 45.5927 485.359 44.5157C484.1 43.4387 483.92 42.3617 484.28 42.0027C484.999 41.2847 487.696 43.0797 491.113 42.9002C494.35 42.7207 496.868 40.3872 497.767 40.9257Z" fill="#495057"/>
<path d="M465.038 13.642C469.534 12.924 474.029 12.565 478.525 12.924Z" fill="white"/>
<path d="M478.345 12.924C478.345 14.001 475.288 14.5395 471.692 14.719C468.095 14.8985 465.038 14.719 464.858 13.642C464.678 12.7445 467.556 11.3085 471.512 11.129C475.468 10.77 478.525 11.847 478.345 12.924Z" fill="#495057"/>
<defs>
<linearGradient id="paint0_linear" x1="493.75" y1="22.5" x2="493.75" y2="56.5" gradientUnits="userSpaceOnUse">
<stop stop-color="#A8A8A8"/>
<stop offset="1" stop-color="#1C7ED6" stop-opacity="0"/>
</linearGradient>
<linearGradient id="paint1_linear" x1="485.75" y1="65" x2="485.75" y2="99" gradientUnits="userSpaceOnUse">
<stop stop-color="#A8A8A8"/>
<stop offset="1" stop-color="#1C7ED6" stop-opacity="0"/>
</linearGradient>
<linearGradient id="paint2_linear" x1="457.75" y1="22" x2="457.75" y2="56" gradientUnits="userSpaceOnUse">
<stop stop-color="#A8A8A8"/>
<stop offset="1" stop-color="#1C7ED6" stop-opacity="0"/>
</linearGradient>
<linearGradient id="paint3_linear" x1="472.75" y1="0" x2="472.75" y2="34" gradientUnits="userSpaceOnUse">
<stop stop-color="#A8A8A8"/>
<stop offset="1" stop-color="#1C7ED6" stop-opacity="0"/>
</linearGradient>
<linearGradient id="paint4_linear" x1="426.75" y1="13" x2="426.75" y2="47" gradientUnits="userSpaceOnUse">
<stop stop-color="#1864AB"/>
<stop offset="1" stop-color="#1C7ED6" stop-opacity="0"/>
</linearGradient>
</defs>
</svg>
